<?xml version="1.0" standalone="no"?> 
<!DOCTYPE svg PUBLIC "-//W3C//DTD SVG 1.1//EN" "http://www.w3.org/Graphics/SVG/1.1/DTD/svg11.dtd" >
<svg xmlns="http://www.w3.org/2000/svg">
<defs>
  <font id="oasis-icon" horiz-adv-x="1000.637">
    <font-face font-family="oasis-icon"
      units-per-em="1000.678" ascent="1000.678"
      descent="0" />
    <missing-glyph horiz-adv-x="0" />
    <glyph glyph-name="account-pwd"
      unicode="&#xE001;"
      horiz-adv-x="1000.637" d=" M494.969 558.082L355.483 393.999L356.737 390.14200000000005L562.138 431.4920000000001V301.0100000000001L355.48300000000006 337.21500000000015L354.13200000000006 333.2930000000001L494.9680000000001 174.38700000000006L379.9860000000001 107.2170000000001L306.3830000000001 307.47300000000007L303.7790000000001 306.1550000000001L228.8270000000001 107.2170000000001L117.73500000000011 174.38700000000006L255.9650000000001 335.899V338.46900000000005L53.14 301.009V431.491L253.425 391.427L254.68 393.999L117.736 556.827L232.71800000000002 622.71L305.033 425.02699999999993H307.637L381.303 622.7099999999999L494.969 558.082z M295.811 216.80200000000002C298.07099999999997 215.548 300.51599999999996 214.60900000000004 302.87199999999996 213.35300000000007C300.516 214.60900000000004 298.07 215.548 295.811 216.80200000000002z M480.315 55.54399999999998H947.4970000000001V727.2470000000001L931.277 743.435L745.798 928.946L729.578 945.135H227.856V705.347C245.581 711.968 296.69 738.04 315.763 741.394V859.862H636.21C718.344 859.862 678.784 652.986 678.784 652.986S856.702 720.188 859.1469999999999 633.1279999999999V144.298H593.354L480.315 55.54399999999998z" />
    <glyph glyph-name="add"
      unicode="&#xE002;"
      horiz-adv-x="1000.637" d=" M931.268 572.164L572.143 572.164L572.143 931.288L428.493 931.288L428.493 572.164L69.369 572.164L69.369 428.515L428.493 428.515L428.493 69.38999999999999L572.143 69.38999999999999L572.143 428.515L931.268 428.515z" />
    <glyph glyph-name="additem"
      unicode="&#xE003;"
      horiz-adv-x="1000.637" d=" M771.704 934.355H228.986C139.047 934.355 66.172 861.428 66.172 771.54V229.03499999999997C66.172 139.14599999999996 139.046 66.32399999999996 228.986 66.32399999999996H771.705C861.5920000000001 66.32399999999996 934.466 139.1479999999999 934.4670000000001 229.03499999999997V771.539C934.466 861.428 861.592 934.249 771.704 934.355zM713.769 429.12H571.471V286.8190000000001C571.471 247.63100000000009 539.646 215.80900000000008 500.318 215.80900000000008C461.062 215.80900000000008 429.169 247.63100000000009 429.169 286.8190000000001V429.12H286.86899999999997C247.61099999999996 429.12 215.72099999999998 460.94399999999996 215.72099999999998 500.27C215.72099999999998 539.457 247.611 571.418 286.86899999999997 571.418H429.168V713.7180000000001C429.168 752.907 461.06100000000004 784.868 500.318 784.868C539.645 784.868 571.47 752.907 571.47 713.7180000000001V571.418H713.768C753.0980000000001 571.418 784.917 539.456 784.917 500.27C784.919 460.94500000000005 753.099 429.12 713.769 429.12z" />
    <glyph glyph-name="all-fold"
      unicode="&#xE004;"
      horiz-adv-x="1000.637" d=" M898.694 898.528C860.764 936.457 810.326 957.381 756.6139999999999 957.444H244.072C227.234 957.444 210.88 955.351 195.24 951.432V696.548H412.97900000000004V771.662H617.9340000000001V696.548H881.3430000000001V625.804H617.935V564.991H412.979V625.804H195.24V625.8019999999999H124.49700000000001V917.902C75.13700000000001 881.245 43.09000000000002 822.527 43.09000000000002 756.461V244.11800000000005C43.09000000000002 190.442 63.997000000000014 139.98900000000003 101.96000000000001 102.05100000000004C139.91400000000002 64.1210000000001 190.383 43.235000000000014 244.072 43.235000000000014H756.614C810.283 43.235000000000014 860.74 64.12400000000002 898.6880000000001 102.05700000000002C936.6430000000001 139.99699999999996 957.546 190.44799999999998 957.546 244.11900000000003V756.4590000000001C957.547 810.121 936.647 860.575 898.694 898.528z" />
    <glyph glyph-name="all-unfold"
      unicode="&#xE005;"
      horiz-adv-x="1000.637" d=" M898.93 898.764C860.981 936.716 810.512 957.652 756.766 957.715H243.919C234.30800000000002 957.715 224.85500000000002 957.022 215.59900000000002 955.712V739.6320000000001H366.93100000000004V791.838H509.37700000000007V648.199H366.931V690.4649999999999H326.001V526.497H540.582V578.704H683.025V435.063H540.582V477.331H402.212V315.244H691.7570000000001V367.45000000000005H834.2040000000001V223.80900000000008H691.758V266.07600000000014H402.212L402.212 266.07600000000014H353.044L353.044 266.07600000000014L353.044 266.07600000000014V315.24400000000014L353.044 315.24400000000014V477.33000000000004H326.001V477.3280000000001H276.83399999999995V477.33000000000004V526.4960000000001V690.4649999999999H215.59899999999993V690.4649999999999H166.43099999999993V690.4649999999999L166.43099999999993 690.4649999999999V739.632L166.43099999999993 739.632V942.179C93.901 911.779 42.819 840.052 42.819 756.613V243.96699999999998C42.819 190.25900000000001 63.738 139.77599999999995 101.724 101.81499999999994C139.701 63.86399999999992 190.199 42.962999999999965 243.91899999999998 42.962999999999965H756.765C810.466 42.962999999999965 860.953 63.86399999999992 898.923 101.81999999999994C936.902 139.7829999999999 957.818 190.2639999999999 957.818 243.9659999999999V756.612C957.818 810.306 936.906 860.789 898.93 898.764z" />
    <glyph glyph-name="all"
      unicode="&#xE006;"
      horiz-adv-x="1000.637" d=" M528.827 402.96900000000005C513.371 389.60300000000007 488.317 389.60300000000007 472.875 402.96900000000005L104.542 636.111C89.093 649.479 89.093 671.154 104.542 684.5219999999999L472.876 917.662C488.33099999999996 931.03 513.372 931.03 528.828 917.662L897.154 684.5219999999999C912.609 671.154 912.609 649.479 897.154 636.111L528.827 402.96900000000005z M873.521 338.885C873.6179999999999 338.727 873.644 338.57899999999995 873.723 338.41999999999996C873.644 338.26699999999994 873.6179999999999 338.1239999999999 873.521 337.9649999999999L508.37 106.83699999999999L506.218 105.47799999999995L504.336 103.84199999999998C503.13800000000003 102.80799999999999 501.773 102.59500000000003 500.839 102.59500000000003C499.901 102.59500000000003 498.53 102.80799999999999 497.343 103.84199999999998L495.45500000000004 105.47399999999993L128.163 337.956C128.068 338.106 128.02200000000002 338.26700000000005 127.95000000000002 338.4200000000001C128.02200000000002 338.57900000000006 128.068 338.74300000000005 128.163 338.8940000000001L245.86900000000003 419.65700000000015L159.44000000000003 429.64700000000016L81.93700000000003 383.8600000000001L80.04800000000003 382.2260000000001C66.51600000000003 370.51700000000017 59.40100000000003 355.37200000000007 58.52700000000003 340.0110000000001H58.35400000000003C58.35400000000003 339.47900000000004 58.42700000000003 338.9520000000001 58.44200000000003 338.4200000000001C58.42700000000003 337.898 58.35400000000003 337.3700000000001 58.35400000000003 336.83500000000004H58.52700000000003C59.40000000000003 321.476 66.51600000000003 306.3330000000001 80.04500000000003 294.62200000000007L81.93800000000003 292.9850000000001L450.59400000000005 59.6400000000001C464.32900000000006 48.68600000000015 482.03900000000004 42.68600000000015 500.84000000000003 42.68600000000015C519.625 42.68600000000015 537.349 48.68600000000015 551.07 59.6400000000001L919.738 292.9850000000001L921.62 294.61800000000017C934.766 305.9900000000001 942.279 320.8850000000002 943.171 336.83500000000015H943.355C943.355 337.3700000000001 943.277 337.8900000000001 943.259 338.41600000000017C943.277 338.9520000000001 943.355 339.47500000000014 943.355 340.0110000000002H943.171C942.272 355.96000000000015 934.7660000000001 370.85400000000016 921.62 382.2260000000002L919.738 383.86000000000024L842.235 429.6470000000003L755.797 419.65700000000027L873.521 338.885z M943.17 518.3199999999999C941.985 533.855 934.461 548.3199999999999 921.6189999999999 559.428L919.737 561.062L845.8349999999999 607.8389999999999H728.563L873.376 516.1800000000001L508.37 285.14700000000005L506.218 283.788L504.336 282.15700000000004C503.13800000000003 281.119 501.773 280.9050000000001 500.839 280.9050000000001C499.901 280.9050000000001 498.53 281.11900000000014 497.343 282.15700000000004L495.45500000000004 283.784L128.29500000000002 516.18L273.108 607.8389999999999H155.838L81.937 561.0629999999999L80.048 559.4289999999999C66.84 547.9989999999999 59.685 533.3019999999999 58.538 518.3209999999999H58.352999999999994C58.352999999999994 517.608 58.38499999999999 516.895 58.413 516.1819999999999C58.385999999999996 515.4689999999998 58.352999999999994 514.7559999999999 58.352999999999994 514.0429999999999H58.538C59.684 499.0629999999999 66.84 484.36299999999994 80.044 472.93399999999986L81.937 471.3009999999998L450.593 237.9509999999998C464.32800000000003 226.99699999999984 482.038 220.99699999999984 500.839 220.99699999999984C519.625 220.99699999999984 537.348 226.99699999999984 551.069 237.9509999999998L919.737 471.3009999999998L921.6189999999999 472.92999999999984C934.4609999999999 484.0379999999998 941.9979999999999 498.5079999999998 943.1729999999999 514.0429999999999H943.3539999999999C943.353 514.7499999999998 943.3199999999999 515.4519999999998 943.2929999999999 516.1549999999999C943.3189999999998 516.8759999999999 943.3539999999999 517.5949999999998 943.3539999999999 518.3189999999998H943.17z" />
    <glyph glyph-name="anchor"
      unicode="&#xE007;"
      horiz-adv-x="1000.637" d=" M500.31800000000004 65.38700000000006C259.52200000000005 65.38700000000006 64.28800000000004 260.09000000000003 64.28800000000004 500.352L64.28800000000004 500.352V609.094L282.30300000000005 391.61H192.51100000000002C231.686 281.91100000000006 327.86500000000007 199.51600000000008 445.761 179.611V445.956H391.31100000000004C361.13200000000006 445.956 336.807 470.332 336.807 500.352C336.807 530.372 361.238 554.75 391.31100000000004 554.75H445.814V619.1270000000001C382.422 641.562 336.807 701.308 336.807 772.2860000000001C336.807 854.787 398.49600000000004 922.33 478.336 933.109C485.468 934.5740000000001 492.814 935.292 500.31800000000004 935.292C507.92900000000003 935.292 515.169 934.52 522.194 933.109C602.087 922.331 663.829 854.787 663.829 772.206C663.829 701.3090000000001 618.1619999999999 641.562 554.822 619.0740000000001V554.697H609.326C639.453 554.697 663.8290000000001 530.321 663.8290000000001 500.30100000000004C663.8290000000001 470.28100000000006 639.4530000000001 445.90200000000004 609.326 445.90200000000004H554.822V179.55700000000002C672.771 199.41100000000006 769.005 281.86 808.073 391.558H718.333L936.3489999999999 609.0409999999999V500.352L936.3489999999999 500.352C936.348 260.09000000000003 741.1139999999999 65.38700000000006 500.31800000000004 65.38700000000006zM500.31800000000004 826.55C470.24500000000006 826.55 445.814 802.251 445.814 772.205C445.814 742.185 470.245 717.835 500.31800000000004 717.835C530.391 717.835 554.822 742.186 554.822 772.205C554.822 802.251 530.391 826.55 500.31800000000004 826.55z" />
    <glyph glyph-name="arrow-down"
      unicode="&#xE008;"
      horiz-adv-x="1000.637" d=" M59.65899999999999 741.506L500.31700000000006 260.57000000000005L940.976 741.506z" />
    <glyph glyph-name="arrow-left"
      unicode="&#xE009;"
      horiz-adv-x="1000.637" d=" M685.623 884.031L276.681 509.339L685.623 134.64599999999996z" />
    <glyph glyph-name="arrow-right"
      unicode="&#xE00A;"
      horiz-adv-x="1000.637" d=" M337.209 125.64700000000005L746.151 500.34L337.209 875.032z" />
    <glyph glyph-name="arrow-up"
      unicode="&#xE00B;"
      horiz-adv-x="1000.637" d=" M940.976 262.953L500.31800000000004 743.891L59.65899999999999 262.953z" />
    <glyph glyph-name="asc"
      unicode="&#xE00C;"
      horiz-adv-x="1000.637" d=" M177.58 294.33899999999994L500.319 706.3389999999999L823.057 294.33899999999994z" />
    <glyph glyph-name="audio"
      unicode="&#xE00D;"
      horiz-adv-x="1000.637" d=" M903.194 927.506L367.161 821.9639999999999V302.7360000000001C338.473 325.3520000000001 299.942 339.48800000000006 257.378 339.48800000000006C169.06299999999996 339.48800000000006 97.44299999999996 279.91200000000003 97.44299999999996 206.3040000000001C97.44299999999996 132.80000000000007 169.06299999999996 73.17100000000005 257.378 73.17100000000005C345.174 73.17100000000005 416.267 132.01600000000008 417.21099999999996 204.8900000000001L419.09499999999997 203.79100000000005V605.855L847.911 662.867L849.169 356.764C820.584 379.11800000000005 782.261 393.095 739.856 393.095C651.487 393.095 579.868 333.5210000000001 579.868 259.913C579.868 186.40999999999997 651.4870000000001 126.77999999999997 739.8560000000001 126.77999999999997C827.9140000000001 126.77999999999997 899.2180000000001 185.93899999999996 899.7420000000001 259.12699999999995H903.195V927.506L903.194 927.506z" />
    <glyph glyph-name="basic-info"
      unicode="&#xE00E;"
      horiz-adv-x="1000.637" d=" M637.505 1000.3389999999999H71.831L71.709 0.6639999999999873L928.9280000000001 0.3389999999999418V708.754L637.505 1000.3389999999999zM132.053 64.87300000000005V941.217L552.788 941.176C667.371 941.217 612.195 688.246 612.195 688.246S866.916 752.699 870.2520000000001 631.238L870.3750000000001 64.87299999999993H132.053zM528.863 807.3050000000001H239.149V724.664L528.823 724.623L528.863 807.3050000000001zM239.068 547.621L761.692 547.5799999999999V630.262H239.068V547.621zM239.068 193.45399999999995L761.366 193.53499999999997L761.692 276.096H239.068V193.45399999999995zM239.149 453.26099999999997L239.068 370.619H761.692L761.489 453.179L239.149 453.26099999999997z" />
    <glyph glyph-name="browser"
      unicode="&#xE00F;"
      horiz-adv-x="1000.637" d=" M300.394 673.72C351.392 732.504 405.24 784.708 459.088 828.576C284.71200000000005 813.3299999999999 147.732 667.908 147.732 489.803C147.732 480.15199999999993 148.391 470.71900000000005 149.213 461.178C188.914 532.079 240.185 604.517 300.394 673.72z M652.165 788.764C606.5419999999999 761.566 556.093 723.785 504.16400000000004 675.914C578.5749999999999 669.717 632.424 619.323 655.894 550.12H385.4440000000001C301.7100000000001 448.67600000000004 248.62900000000005 353.15100000000007 222.08900000000006 278.4660000000001C274.9500000000001 212.11400000000015 351.9400000000001 165.83300000000008 439.84100000000007 153.11200000000008L439.84100000000007 153.11200000000008L443.07700000000006 152.5630000000001C458.10100000000006 150.58900000000006 473.34600000000006 149.0530000000001 488.97300000000007 149.0530000000001C630.0110000000001 149.0530000000001 751.143 234.7070000000001 803.181 356.33100000000013H620.799C586.855 323.1020000000001 540.3 302.5930000000001 488.973 302.5930000000001C398.221 302.5930000000001 333.186 366.7500000000001 315.858 452.07500000000005H673.002H828.351C829.6129999999999 464.5780000000001 830.435 477.18899999999996 830.435 489.803C830.435 619.104 758.216 731.189 652.165 788.764z M859.992 913.188C767.649 993.083 532.0749999999999 872.992 333.406 645.097C134.956 416.98 48.644 167.149 140.824 87.52800000000002C198.894 36.968000000000075 313.88400000000007 66.47000000000003 440.7730000000001 151.904L438.4700000000001 152.23400000000004C330.9920000000001 82.26300000000003 236.18200000000004 58.13600000000008 188.31100000000006 98.82400000000007C107.26400000000007 167.14900000000011 190.99800000000008 394.49800000000005 375.51900000000006 606.437C559.9309999999999 818.157 775.216 934.189 856.318 865.645C906.492 823.203 893.606 720.33 833.1229999999999 598.047C904.299 739.304 919.324 861.5319999999999 859.992 913.188z" />
    <glyph glyph-name="calendar"
      unicode="&#xE010;"
      horiz-adv-x="1000.637" d=" M771.612 66.55200000000002H229.076C139.17499999999998 66.55200000000002 66.279 139.34000000000003 66.279 229.19000000000005V771.487C66.279 842.213 111.732 901.784 174.828 924.193V852.86C174.828 807.9359999999999 211.22400000000002 771.487 256.201 771.487C301.12600000000003 771.487 337.574 807.883 337.574 852.86V934.127H663.064V852.808C663.064 807.884 699.512 771.435 744.437 771.435C789.413 771.435 825.808 807.829 825.808 852.808V924.141C888.905 901.732 934.358 842.159 934.358 771.4359999999999V229.19000000000005C934.357 139.34000000000003 861.4599999999999 66.55200000000002 771.612 66.55200000000002zM825.807 663.045H174.828V229.19000000000005C174.828 199.31100000000004 199.038 175.048 229.077 175.048H771.6129999999999C801.545 175.048 825.808 199.31100000000004 825.808 229.19000000000005V663.045zM608.814 391.909H717.3109999999999V283.46500000000003H608.814V391.909zM608.814 554.6H717.3109999999999V446.10400000000004H608.814V554.6zM446.069 391.909H554.567V283.46500000000003H446.069V391.909zM446.069 554.6H554.567V446.10400000000004H446.069V554.6zM283.324 391.909H391.821V283.46500000000003H283.324V391.909zM283.324 554.6H391.821V446.10400000000004H283.324V554.6zM744.4359999999999 825.684C729.4949999999999 825.684 717.3109999999999 837.843 717.3109999999999 852.809V934.127H771.612V852.808C771.612 837.842 759.376 825.684 744.4359999999999 825.684zM256.20000000000005 825.684C241.20700000000002 825.684 229.07600000000002 837.843 229.07600000000002 852.809V934.127H283.32400000000007V852.808C283.324 837.842 271.194 825.684 256.20000000000005 825.684z" />
    <glyph glyph-name="card"
      unicode="&#xE011;"
      horiz-adv-x="1000.637" d=" M776.562 58.53800000000001H224.075C132.51399999999998 58.53800000000001 58.327999999999975 132.66899999999998 58.327999999999975 224.17399999999998V776.448C58.327999999999975 867.927 132.51499999999996 942.14 224.075 942.14H776.5619999999999C868.0689999999998 942.14 942.3079999999999 867.981 942.3079999999999 776.448V224.17399999999998C942.308 132.66899999999998 868.069 58.53800000000001 776.562 58.53800000000001zM831.812 776.448C831.812 806.932 807.046 831.697 776.562 831.697H224.075C193.509 831.697 168.825 806.987 168.825 776.448V224.17399999999998C168.825 193.74400000000003 193.509 169.03499999999997 224.075 169.03499999999997H776.5619999999999C807.0459999999999 169.03499999999997 831.8119999999999 193.74399999999991 831.8119999999999 224.17399999999998V776.448zM555.5659999999999 445.063H721.313V279.427H555.5659999999999V445.063zM610.814 334.67600000000004H666.064V389.8140000000001H610.814V334.67600000000004zM555.5659999999999 721.2H721.313V555.561H555.5659999999999V721.2zM610.814 610.755H666.064V666.004H610.814V610.755zM279.32300000000004 445.063H445.07000000000005V279.427H279.32300000000004V445.063zM334.571 334.67600000000004H389.82000000000005V389.8140000000001H334.571V334.67600000000004zM279.32300000000004 721.2H445.07000000000005V555.561H279.32300000000004V721.2zM334.571 610.755H389.82000000000005V666.004H334.571V610.755z" />
    <glyph glyph-name="chaining"
      unicode="&#xE012;"
      horiz-adv-x="1000.637" d=" M762.918 305.44500000000005H709.997C640.954 305.44500000000005 582.814 349.629 560.954 411.0250000000001H762.9179999999999C792.1159999999999 411.0250000000001 815.8379999999999 434.6440000000001 815.8379999999999 463.79100000000005V569.371C815.8379999999999 598.545 792.1159999999999 622.16 762.9179999999999 622.16H560.954C582.814 683.53 640.954 727.768 709.997 727.768H762.918C850.565 727.768 921.677 656.865 921.677 569.371V463.78999999999996C921.677 376.347 850.566 305.44500000000005 762.918 305.44500000000005zM286.639 516.607C286.639 545.727 310.308 569.372 339.559 569.372H657.077C686.328 569.372 709.997 545.727 709.997 516.607C709.997 487.433 686.328 463.79099999999994 657.077 463.79099999999994H339.559C310.309 463.78999999999996 286.639 487.433 286.639 516.607zM180.801 569.371V463.78999999999996C180.801 434.644 204.47 411.024 233.721 411.024H435.68399999999997C413.772 349.62800000000004 355.68399999999997 305.44399999999996 286.64 305.44399999999996H233.72C146.071 305.44399999999996 74.96000000000001 376.346 74.96000000000001 463.78999999999996V569.371C74.96000000000001 656.865 146.07100000000003 727.768 233.72 727.768H286.639C355.683 727.768 413.771 683.53 435.683 622.16H233.72C204.47 622.1600000000001 180.801 598.5450000000001 180.801 569.371z" />
    <glyph glyph-name="click"
      unicode="&#xE013;"
      horiz-adv-x="1000.637" d=" M88.009 912.744L890.023 645.79L676.403 533.432L587.4010000000001 486.57399999999996L658.5930000000001 415.52199999999993L895.0980000000001 179.34399999999994L821.7370000000001 105.75599999999997L585.455 342.384L514.282 413.659L467.413 324.55600000000004L355.403 111.303L88.009 912.744M51.431 1000.3389999999999C46.23 1000.3389999999999 40.787 999.535 35.361999999999995 997.913C8.721 989.352 -5.619 960.884 2.949 933.572L301.937 37.36800000000005C305.539 24.860000000000014 314.228 13.295000000000073 326.714 6.458000000000084C334.35 2.3020000000001346 342.446 0.3390000000000555 350.552 0.3390000000000555C368.707 0.3390000000000555 386.302 10.409000000000106 395.00100000000003 27.29600000000005L532.931 289.9620000000001L783.3340000000001 39.0870000000001L786.2 36.54900000000009C795.9430000000001 26.826000000000136 808.9000000000001 21.975000000000136 821.8570000000001 21.975000000000136C834.816 21.975000000000136 847.772 26.827000000000112 857.3720000000001 36.54900000000009L964.0600000000001 143.58300000000008C983.8560000000001 163.36800000000005 983.8560000000001 194.9620000000001 964.0600000000001 214.75700000000006L710.7700000000001 467.70000000000005L973.086 605.638C984.652 612.117 993.23 621.368 997.508 634.797C1006.534 661.407 991.714 689.763 965.9240000000001 698.3240000000001L66.598 997.913C61.716 999.535 56.64 1000.3389999999999 51.431 1000.3389999999999L51.431 1000.3389999999999z" />
    <glyph glyph-name="close"
      unicode="&#xE014;"
      horiz-adv-x="1000.637" d=" M780.641 890.439C804.7679999999999 866.254 848.4549999999999 822.565 872.641 798.385C813.168 738.799 615.584 541.386 615.584 541.386L589.314 515.06L615.584 488.73499999999996L872.641 231.79399999999998L780.641 139.68200000000002C720.885 199.438 523.7 396.624 523.7 396.624L497.374 423.062L471.048 396.68000000000006L213.994 139.62400000000002C189.867 163.86400000000003 146.23399999999998 207.61 121.996 231.84800000000007L378.935 488.84900000000005L405.206 515.0600000000001L378.935 541.442L121.996 798.385C146.23399999999998 822.623 189.756 866.199 213.994 890.381L470.933 633.384L497.259 607.143L523.585 633.384L780.641 890.439z" />
    <glyph glyph-name="comment-msg"
      unicode="&#xE015;"
      horiz-adv-x="1000.637" d=" M496.121 824.0360000000001L505.67699999999996 823.9639999999999C703.564 820.046 862.384 695.311 859.529 545.937C856.564 400.369 697.486 281.96400000000006 504.689 281.96400000000006L495.023 282.07500000000005C450.57800000000003 282.952 407.009 289.98300000000006 365.45500000000004 302.97900000000004L350.73800000000006 307.591L336.64200000000005 301.54999999999995L217.581 250.25800000000004C228.052 303.60300000000007 228.70999999999998 369.8660000000001 188.80399999999997 421.236C156.73199999999997 463.595 140.18299999999996 511.519 141.06199999999998 560.066C144.027 705.595 303.289 824.0360000000001 496.121 824.0360000000001M496.486 890.009H496.121C267.59 890.009 78.82 742.613 75.16199999999998 561.3820000000001C74.06399999999998 497.825 95.07799999999997 435.62199999999996 136.30299999999997 381.36199999999997C162.66399999999996 347.4599999999999 159.84399999999997 298.327 152.85199999999998 263.034L128.688 140.202L243.612 189.702L354.508 237.442C399.28299999999996 224.26200000000006 446.11199999999997 217.04700000000003 493.703 216.13400000000001L504.17699999999996 216.09800000000007C732.997 216.09800000000007 921.769 363.4570000000001 925.429 544.577C928.9449999999999 730.3820000000001 741.161 885.212 506.95599999999996 889.8620000000001L496.77899999999994 890.008L496.486 890.009L496.486 890.009z M520.656 646.127L289.941 646.127L289.941 720.972L520.656 720.972z M710.656 514.692L289.941 514.692L289.941 589.5029999999999L710.656 589.5029999999999z M710.656 383.24L289.941 383.24L289.941 458.052L710.656 458.052z" />
    <glyph glyph-name="copy"
      unicode="&#xE016;"
      horiz-adv-x="1000.637" d=" M673.951 706.395L516.546 863.202L501.6940000000001 877.99H87.695V127.476V65.64599999999996H688.761V691.587L673.951 706.395zM627.307 127.476H148.707V819.329H435.671C510.695 819.329 480.499 664.761 480.499 664.761S625.09 704.3779999999999 627.307 624.8779999999999V127.476z M898.133 763.837L743.211 920.245L728.4 935.032H519.385L578.09 876.372H662.424C737.4019999999999 876.372 702.24 727.0360000000001 702.24 727.0360000000001S849.271 761.842 851.488 682.342V184.519H754.1170000000001V122.68700000000001H912.941V749.027L898.133 763.837z M87.695 26.860000000000014" />
    <glyph glyph-name="data-statistics"
      unicode="&#xE017;"
      horiz-adv-x="1000.637" d=" M625.331 241.60299999999995C625.331 251.298 618.313 259.15 609.716 259.15H390.832C382.234 259.15 375.216 251.298 375.216 241.60299999999995V171.28999999999996H218.926V118.51999999999998H781.6220000000001V171.288H625.331V241.60299999999995L625.331 241.60299999999995L625.331 241.60299999999995L625.331 241.60299999999995zM851.805 882.158H148.786C119.661 882.158 96.06200000000001 858.58 96.06200000000001 829.454V337.294C96.06200000000001 308.21299999999997 119.61700000000002 284.567 148.786 284.567H851.8050000000001C880.8860000000001 284.567 904.575 308.18899999999996 904.575 337.294V829.454C904.573 858.56 880.976 882.158 851.805 882.158L851.805 882.158L851.805 882.158L851.805 882.158zM851.805 354.928C851.805 345.212 843.953 337.35900000000004 834.2159999999999 337.35900000000004H166.332C156.595 337.35900000000004 148.786 345.2130000000001 148.786 354.928V811.888C148.786 821.6030000000001 156.595 829.455 166.332 829.455H834.216C843.953 829.455 851.8050000000001 821.627 851.8050000000001 811.888V354.928L851.805 354.928L851.805 354.928L851.805 354.928zM671.739 388.54999999999995H766.839V665.379H671.739V388.54999999999995L671.739 388.54999999999995L671.739 388.54999999999995L671.739 388.54999999999995zM519.617 388.54999999999995H614.717V750.565H519.617V388.54999999999995L519.617 388.54999999999995L519.617 388.54999999999995L519.617 388.54999999999995zM234.323 388.54999999999995H329.421V495.00999999999993H234.32299999999998V388.54999999999995L234.323 388.54999999999995L234.323 388.54999999999995L234.323 388.54999999999995zM367.495 388.54999999999995H462.595V580.239H367.495V388.54999999999995L367.495 388.54999999999995L367.495 388.54999999999995L367.495 388.54999999999995z" />
    <glyph glyph-name="data"
      unicode="&#xE018;"
      horiz-adv-x="1000.637" d=" M500.31800000000004 67.95500000000004C321.286 67.95500000000004 176.208 140.558 176.208 230.11400000000003L176.208 230.11400000000003V321.35900000000004C176.208 231.803 321.339 176.09400000000005 500.31800000000004 176.09400000000005C679.3249999999999 176.09400000000005 824.427 231.7510000000001 824.427 321.35900000000004V230.11400000000003L824.427 230.11400000000003C824.427 140.558 679.3249999999999 67.95500000000004 500.31800000000004 67.95500000000004zM500.31800000000004 230.11400000000003C321.286 230.11400000000003 176.208 302.774 176.208 392.2750000000001V483.44100000000003C176.208 393.9660000000001 321.339 338.20600000000013 500.31800000000004 338.20600000000013C679.3249999999999 338.20600000000013 824.427 393.9130000000001 824.427 483.44100000000014V392.2750000000001C824.427 302.774 679.3249999999999 230.11400000000003 500.31800000000004 230.11400000000003zM500.31800000000004 392.275C321.286 392.275 176.208 464.82899999999995 176.208 554.382V645.6009999999999C176.208 556.0459999999999 321.339 500.3109999999999 500.31800000000004 500.3109999999999C679.3249999999999 500.3109999999999 824.427 556.0459999999999 824.427 645.6009999999999V554.3819999999998C824.427 464.82900000000006 679.3249999999999 392.275 500.31800000000004 392.275zM500.31800000000004 554.383C321.286 554.383 176.208 626.989 176.208 716.544V770.562C176.208 860.092 321.339 932.723 500.31800000000004 932.723C679.3249999999999 932.723 824.427 860.092 824.427 770.562V716.544C824.427 626.989 679.3249999999999 554.383 500.31800000000004 554.383z" />
    <glyph glyph-name="delcheck"
      unicode="&#xE019;"
      horiz-adv-x="1000.637" d=" M772.427 935.498H228.211C138.02200000000002 935.498 64.94600000000003 862.399 64.94600000000003 772.2860000000001V228.34000000000003C64.94600000000003 138.20500000000004 138.02100000000002 65.18000000000006 228.211 65.18000000000006H772.427C862.615 65.18000000000006 935.691 138.20500000000004 935.691 228.34000000000003V772.2860000000001C935.691 862.4 862.615 935.498 772.427 935.498zM731.292 384.83899999999994C763.19 352.93999999999994 763.19 301.25699999999995 731.292 269.3559999999999C699.389 237.61699999999985 647.71 237.61699999999985 615.809 269.3559999999999L500.328 384.83899999999994L384.846 269.356C352.907 237.61699999999996 301.306 237.61699999999996 269.28700000000003 269.356C237.46500000000003 301.259 237.46500000000003 352.93999999999994 269.28700000000003 384.83900000000006L384.846 500.321L269.28700000000003 615.801C237.46500000000003 647.6600000000001 237.46500000000003 699.264 269.28700000000003 731.202C301.228 763.1 352.908 763.1 384.846 731.202L500.328 615.801L615.809 731.202C647.7099999999999 763.1 699.389 763.1 731.2919999999999 731.202C763.1899999999999 699.2620000000001 763.1899999999999 647.6600000000001 731.2919999999999 615.801L615.809 500.321L731.292 384.83899999999994z" />
    <glyph glyph-name="delete"
      unicode="&#xE01A;"
      horiz-adv-x="1000.637" d=" M854.073 147.52600000000007C825.38 118.85200000000009 778.747 118.85200000000009 749.871 147.52600000000007L500.333 396.28200000000004L250.797 147.52600000000007C221.982 118.85200000000009 175.381 118.85200000000009 146.565 147.52600000000007C117.811 176.31500000000005 117.811 222.82900000000006 146.565 251.62400000000002L396.129 500.25300000000004L146.626 750.011C117.87200000000001 778.6800000000001 117.87200000000001 825.315 146.626 854.109C175.442 882.778 222.043 882.778 250.85799999999998 854.109L500.333 604.477L749.869 854.109C778.745 882.84 825.378 882.84 854.071 854.109C882.8240000000001 825.315 882.8240000000001 778.803 854.071 750.011L604.536 500.254L854.073 251.62400000000002C882.824 222.82900000000006 882.824 176.317 854.073 147.52600000000007z" />
    <glyph glyph-name="delitem"
      unicode="&#xE01B;"
      horiz-adv-x="1000.637" d=" M772.106 934.986H228.53599999999994C138.45499999999993 934.986 65.45999999999995 861.9680000000001 65.45999999999995 771.966V228.65700000000004C65.45999999999995 138.635 138.45499999999996 65.69200000000001 228.53599999999994 65.69200000000001H772.106C862.186 65.69200000000001 935.1800000000001 138.635 935.178 228.65700000000004V771.966C935.178 862.021 862.184 934.986 772.106 934.986zM714.004 429.14300000000003H286.621C247.327 429.14300000000003 215.399 461.001 215.399 500.37300000000005C215.399 539.6020000000001 247.326 571.5350000000001 286.621 571.5350000000001H714.0039999999999C753.3789999999999 571.5350000000001 785.2369999999999 539.6020000000001 785.2369999999999 500.37300000000005C785.238 461.001 753.379 429.14300000000003 714.004 429.14300000000003z" />
    <glyph glyph-name="desc"
      unicode="&#xE01C;"
      horiz-adv-x="1000.637" d=" M177.58 706.3389999999999L500.319 294.33899999999994L823.057 706.3389999999999z" />
    <glyph glyph-name="detail"
      unicode="&#xE01D;"
      horiz-adv-x="1000.637" d=" M774.065 938.146H226.573C135.842 938.146 62.32500000000002 864.604 62.32500000000002 773.954V226.6740000000001C62.32500000000002 136.10400000000016 135.842 62.53200000000004 226.573 62.53200000000004H774.0649999999999C864.7969999999999 62.53200000000004 938.3129999999999 136.10400000000004 938.3129999999999 226.6740000000001V773.9540000000001C938.313 864.604 864.797 938.146 774.065 938.146zM500.319 253.164H188.704V331.068H500.319V253.164zM811.936 408.821H188.704V486.72400000000005H811.935V408.821zM811.936 564.629H188.704V642.532H811.935V564.629zM811.936 720.36H188.704V798.265H811.935V720.36z" />
    <glyph glyph-name="details"
      unicode="&#xE01E;"
      horiz-adv-x="1000.637" d=" M622.596 946.0889999999999H118.34L118.21000000000001 54.89399999999989L882.384 54.58899999999994L882.427 686.126L622.596 946.0889999999999zM171.97 112.13599999999997V893.417L547.071 893.33C649.2370000000001 893.417 600.047 667.8430000000001 600.047 667.8430000000001S827.146 725.303 830.1500000000001 617.043L830.2360000000001 112.13600000000008H171.97z M267.476 774.013L267.476 700.317L525.696 700.317L525.739 774.013z M733.337 616.173L267.432 616.173L267.432 542.519L733.337 542.476z M733.337 300.447L267.432 300.447L267.432 226.79399999999998L733.03 226.79399999999998z M733.162 458.288L267.476 458.376L267.432 384.677L733.337 384.722z" />
    <glyph glyph-name="disable"
      unicode="&#xE01F;"
      horiz-adv-x="1000.637" d=" M749.337 898.728C251.589 898.728 251.589 898.728 251.589 898.728C168.99099999999999 898.728 102.025 831.7149999999999 102.025 749.358C102.025 251.322 102.025 251.322 102.025 251.322C102.025 168.72799999999995 168.99200000000002 101.95100000000002 251.589 101.95100000000002C749.337 101.95100000000002 749.337 101.95100000000002 749.337 101.95100000000002C831.694 101.95100000000002 898.612 168.72800000000007 898.612 251.322C898.612 749.358 898.612 749.358 898.612 749.358C898.613 831.715 831.695 898.728 749.337 898.728zM744.978 320.73299999999995L679.924 255.67899999999997L500.319 435.28499999999997L320.713 255.67999999999995L255.65900000000002 320.7339999999999L435.264 500.33899999999994L255.659 679.944L320.71299999999997 744.998L500.318 565.393L679.924 744.998L744.978 679.944L565.372 500.339L744.978 320.73299999999995z" />
    <glyph glyph-name="dot"
      unicode="&#xE020;"
      horiz-adv-x="1000.637" d=" M59.658000000000044 501.038C59.658000000000044 257.6687544243124 256.94775442431245 60.37900000000002 500.31700000000006 60.37900000000002C743.6862455756876 60.37900000000002 940.976 257.6687544243124 940.976 501.038C940.976 744.4072455756876 743.6862455756876 941.697 500.31700000000006 941.697C256.94775442431245 941.697 59.658000000000044 744.4072455756876 59.658000000000044 501.038z" />
    <glyph glyph-name="down-list"
      unicode="&#xE021;"
      horiz-adv-x="1000.637" d=" M769.969 953.415H223.836C133.33 953.415 60 880.083 60 789.577V243.66099999999994C60 153.31499999999994 133.32999999999998 79.93099999999993 223.836 79.93099999999993H769.969C860.421 79.93099999999993 933.807 153.3169999999999 933.807 243.66099999999994V789.576C933.807 880.029 860.421 953.415 769.969 953.415zM336.814 214.76199999999994H193.824V357.75199999999995H336.814V214.76199999999994zM336.814 445.244H193.824V588.097H336.814V445.244zM336.814 676.594H193.824V819.582H336.814V676.594zM801.464 214.76199999999994H443.986V357.75199999999995H801.4639999999999V214.76199999999994zM801.464 445.244H443.986V588.097H801.4639999999999V445.244zM801.464 676.594H443.986V819.582H801.4639999999999V676.594z" />
    <glyph glyph-name="down"
      unicode="&#xE022;"
      horiz-adv-x="1000.637" d=" M190.689 771.018C155.18599999999998 806.52 97.06599999999999 805.943 61.56399999999999 770.441C36.416999999999994 745.323 29.434999999999995 709.258 39.907999999999994 677.691C44.227 664.643 51.150999999999996 652.307 61.562999999999995 641.922L190.082 513.404C190.14 513.344 190.186 513.3299999999999 190.245 513.242L500.165 203.32100000000003L810.278 513.435L938.797 641.954C974.299 677.4549999999999 974.299 734.969 938.797 770.471C903.2950000000001 805.973 845.78 805.9739999999999 810.277 770.471L500.757 460.94899999999996L190.689 771.018z" />
    <glyph glyph-name="downfload"
      unicode="&#xE023;"
      horiz-adv-x="1000.637" d=" M934.062 229.40600000000006C934.062 139.66200000000003 861.259 66.85900000000004 771.408 66.85900000000004H676.2090000000001L723.9140000000001 114.50999999999999C741.3340000000001 132.09000000000003 754.2540000000001 152.89800000000002 762.1430000000001 175.187H771.4090000000001C801.3800000000001 175.187 825.6280000000002 199.43899999999996 825.6280000000002 229.40600000000006V717.158H175.01V229.40599999999995C175.01 199.43899999999996 199.207 175.1869999999999 229.22799999999998 175.1869999999999H238.43999999999997C246.43499999999997 152.8449999999999 259.249 131.98299999999995 276.828 114.40599999999995L324.42699999999996 66.85899999999992H229.22799999999992C139.37599999999992 66.85899999999992 66.57399999999993 139.66199999999992 66.57399999999993 229.40599999999995V771.322C66.57399999999993 861.094 139.37599999999995 933.924 229.22799999999992 933.924H771.4079999999998C861.2599999999998 933.924 934.0619999999998 861.148 934.0619999999998 771.322V229.40600000000006zM229.228 879.705C199.314 879.705 175.01000000000002 855.457 175.01000000000002 825.487C175.01000000000002 795.4929999999999 199.20700000000002 771.269 229.22800000000004 771.269C259.2490000000001 771.269 283.4460000000001 795.4929999999999 283.4460000000001 825.487C283.446 855.457 259.14300000000003 879.705 229.228 879.705zM391.882 283.625H446.099V446.174C446.099 476.1149999999999 470.40299999999996 500.39199999999994 500.31699999999995 500.39199999999994C530.233 500.39199999999994 554.536 476.115 554.536 446.174V283.625H608.7529999999999C630.6759999999999 283.625 650.583 270.389 658.842 250.16200000000003C667.207 229.83000000000004 662.548 206.53300000000002 647.088 191.0730000000001L538.653 82.63999999999999C528.063 72.101 514.189 66.75400000000002 500.31800000000004 66.75400000000002S472.52200000000005 72.101 461.98500000000007 82.63999999999999L353.54900000000004 191.07299999999998C338.033 206.53300000000002 333.42800000000005 229.88300000000004 341.79300000000006 250.16200000000003C350.107 270.389 370.01500000000004 283.625 391.882 283.625z" />
    <glyph glyph-name="download"
      unicode="&#xE024;"
      horiz-adv-x="1000.637" d=" M817.396 265.36400000000003C817.396 238.96699999999998 785.6519999999999 235.19600000000003 785.6519999999999 235.19600000000003H219.65199999999993C189.48399999999992 235.19600000000003 189.48399999999992 265.36400000000003 189.48399999999992 265.36400000000003L188.71499999999992 362.58000000000004H62.877V144.69000000000005C62.877 111.37 89.893 85.29500000000007 123.214 85.29500000000007H877.423C910.743 85.29500000000007 937.76 111.36800000000005 937.76 144.69000000000005V362.58000000000004H817.396V265.36400000000003z M736.072 540.861H569.62V859.876H569.587C569.411 888.744 545.962 912.094 517.054 912.094C488.14399999999995 912.094 464.695 888.744 464.519 859.876H464.462V540.861H302.529L519.006 319.76300000000003L736.072 540.861z" />
    <glyph glyph-name="drag-sort"
      unicode="&#xE025;"
      horiz-adv-x="1000.637" d=" M425.697 923.046L287.284 714.351L189.37 566.719C189.731 566.357 190.232 566.133 190.784 566.133L318.284 590.929V79.63199999999995C318.284 78.52699999999993 319.18 77.63199999999995 320.284 77.63199999999995H424.284C425.388 77.63199999999995 426.284 78.52699999999993 426.284 79.63199999999995V628.133V921.631C426.284 922.184 426.061 922.684 425.697 923.046z M574.938 77.63199999999995L713.352 286.3269999999999L811.266 433.95899999999995C810.905 434.3209999999999 810.4029999999999 434.54499999999996 809.852 434.54499999999996L682.352 409.7489999999999V921.046C682.352 922.15 681.456 923.046 680.352 923.046H576.352C575.247 923.046 574.352 922.15 574.352 921.046V372.54499999999996V79.04599999999994C574.353 78.49300000000005 574.575 77.99300000000005 574.938 77.63199999999995z" />
    <glyph glyph-name="edit"
      unicode="&#xE026;"
      horiz-adv-x="1000.637" d=" M768.428 901.857L655.505 788.935L788.293 656.081L901.281 769.003L768.428 901.857zM415.709 403.41099999999994L379.604 439.352L632.306 692.088L595.514 728.88L207.28199999999998 340.48L207.737 340.154L99.355 98.82100000000003L339.741 208.21699999999998L340.06899999999996 207.75800000000004L341.17999999999995 208.93500000000006L341.17999999999995 208.93500000000006L728.3029999999999 596.125L668.2809999999998 656.0820000000001L415.709 403.41099999999994zM326.901 269.90599999999995L222.11200000000002 222.19899999999996L269.425 327.476L322.163 380.278L329.807 329.89300000000003L379.736 322.70500000000004L326.901 269.90599999999995z" />
    <glyph glyph-name="email-box"
      unicode="&#xE027;"
      horiz-adv-x="1000.637" d=" M890.969 801.719H109.668C78.819 801.719 53.86200000000001 776.7049999999999 53.86200000000001 745.912V254.76599999999996C53.86200000000001 223.9749999999999 78.81900000000002 198.95799999999997 109.668 198.95799999999997H890.969C921.8130000000001 198.95799999999997 946.774 223.97500000000002 946.774 254.76599999999996V745.912C946.774 776.7049999999999 921.813 801.719 890.969 801.719zM500.37 474.943L173.598 745.912H827.038L500.37 474.943zM364.723 500.449L109.668 288.938V711.904L364.723 500.449zM408.434 464.15200000000004L500.372 387.908L592.313 464.15200000000004L844.809 254.765H155.883L408.434 464.15200000000004zM636.02 500.449L890.969 711.904V288.938L636.02 500.449z" />
    <glyph glyph-name="enable"
      unicode="&#xE028;"
      horiz-adv-x="1000.637" d=" M749.337 898.728C251.589 898.728 251.589 898.728 251.589 898.728C168.99099999999999 898.728 102.025 831.7149999999999 102.025 749.358C102.025 251.322 102.025 251.322 102.025 251.322C102.025 168.72799999999995 168.99200000000002 101.95100000000002 251.589 101.95100000000002C749.337 101.95100000000002 749.337 101.95100000000002 749.337 101.95100000000002C831.694 101.95100000000002 898.612 168.72800000000007 898.612 251.322C898.612 749.358 898.612 749.358 898.612 749.358C898.613 831.715 831.695 898.728 749.337 898.728zM393.149 261.75699999999995L393.094 261.8119999999999L393.039 261.75699999999995L197.719 457.0769999999999L265.114 524.4719999999999L393.09299999999996 396.49199999999985L735.521 738.9219999999998L802.9169999999999 671.5259999999998L393.149 261.75699999999995z" />
    <glyph glyph-name="exception"
      unicode="&#xE029;"
      horiz-adv-x="1000.637" d=" M928.734 188.97199999999998C905.009 231.81999999999994 563.5360000000001 823.452 542.222 859.664C523.116 892.145 477.602 892.696 458.512 859.664C429.454 809.36 89.716 219.97500000000002 72.885 190.47799999999995C51.86300000000001 153.68399999999997 78.59700000000001 116.44599999999991 114.52700000000002 116.44599999999991C142.23700000000002 116.44599999999991 847.167 116.44599999999991 887.335 116.44599999999991C926.91 116.44600000000003 946.131 157.59799999999996 928.734 188.97199999999998zM500.176 210.28300000000002C474.164 210.28300000000002 453.03 231.42100000000005 453.03 257.43100000000004C453.03 283.49300000000005 474.16499999999996 304.5780000000001 500.176 304.5780000000001C526.237 304.5780000000001 547.325 283.4910000000001 547.325 257.43100000000004C547.325 231.42100000000005 526.237 210.28300000000002 500.176 210.28300000000002zM594.517 587.327C590.5160000000001 540.134 547.326 398.78499999999997 547.326 398.78499999999997C538.6940000000001 371.60799999999995 526.238 351.683 500.177 351.683C474.165 351.683 460.81 372.87800000000004 453.031 398.78499999999997C453.031 398.78499999999997 405.88100000000003 535.278 405.88100000000003 587.327C405.88100000000003 639.379 448.083 681.577 500.175 681.577C552.295 681.576 598.51 634.4639999999999 594.517 587.327z" />
    <glyph glyph-name="exchange"
      unicode="&#xE02A;"
      horiz-adv-x="1000.637" d=" M191.153 576.579C206.655 561.13 229.933 556.475 250.198 564.833C270.35600000000005 573.192 283.58200000000005 592.874 283.58200000000005 614.779V668.742H337.75900000000007V776.835H283.58200000000005V830.9590000000001C283.58200000000005 852.809 270.3550000000001 872.544 250.14400000000003 880.904C229.93300000000002 889.263 206.65500000000003 884.608 191.15300000000005 869.158L82.798 761.069C72.242 750.539 66.873 736.677 66.873 722.922C66.873 709.061 72.191 695.251 82.745 684.616L191.153 576.579zM809.538 436.797C794.035 452.246 770.7570000000001 456.797 750.493 448.54100000000005C730.2810000000001 440.1840000000001 717.0550000000001 420.3950000000001 717.0550000000001 398.59800000000007V344.528H662.878V236.38300000000004H717.0550000000001V182.418C717.0550000000001 160.51200000000006 730.282 140.832 750.493 132.47299999999996C770.7570000000001 124.11399999999992 794.0350000000001 128.66199999999992 809.538 144.21899999999994L917.892 252.25599999999997C928.421 262.836 933.764 276.69899999999996 933.764 290.453C933.764 304.31600000000003 928.421 318.178 917.892 328.654L809.538 436.797zM446.16700000000003 236.38300000000004H500.344V344.52700000000004H446.167V236.38300000000004zM446.16700000000003 776.835H391.98900000000003V668.742H446.16700000000003V776.835zM337.812 452.563H121.10300000000001C91.21000000000001 452.563 66.92500000000001 428.33299999999997 66.92500000000001 398.49299999999994V182.31099999999992C66.92500000000001 152.4709999999999 91.21000000000001 128.3459999999999 121.10300000000001 128.3459999999999H337.81200000000007C367.73100000000005 128.3459999999999 391.9890000000001 152.4709999999999 391.9890000000001 182.31099999999992V398.4920000000001C391.98900000000003 428.332 367.732 452.563 337.812 452.563zM283.58200000000005 236.38300000000004H175.228V344.52700000000004H283.58200000000005V236.38300000000004zM554.5219999999999 776.835H500.344V668.742H554.5219999999999V776.835zM879.534 884.925H662.877C632.933 884.925 608.6469999999999 860.8 608.6469999999999 830.906V614.78C608.6469999999999 584.885 632.9329999999999 560.707 662.877 560.707H879.533C909.5840000000001 560.707 933.7620000000001 584.885 933.7620000000001 614.78V830.906C933.7629999999999 860.8 909.584 884.925 879.534 884.925zM825.356 668.743H717.054V776.835H825.356V668.743zM554.5219999999999 236.38300000000004H608.6469999999999V344.52700000000004H554.5219999999999V236.38300000000004z" />
    <glyph glyph-name="export"
      unicode="&#xE02B;"
      horiz-adv-x="1000.637" d=" M76.529 791.1179999999999V242.2220000000001C76.529 151.25700000000006 150.23399999999998 77.55400000000009 241.198 77.55400000000009H789.774C880.794 77.55400000000009 954.442 151.25800000000004 954.442 242.2220000000001V791.1179999999999C954.442 882.084 880.794 955.788 789.774 955.788H693.287L741.5300000000001 907.545C759.2180000000001 889.963 771.6550000000001 868.844 779.801 846.006H789.774C820.111 846.006 844.665 821.457 844.665 791.1179999999999V242.22199999999998C844.665 211.82799999999997 820.111 187.33100000000002 789.774 187.33100000000002L241.19799999999998 187.33000000000004C210.85799999999998 187.33000000000004 186.30899999999997 211.8280000000001 186.30899999999997 242.2220000000001V791.1179999999999C186.30899999999997 821.457 210.85799999999998 846.006 241.19799999999998 846.006H251.16899999999998C259.21 868.844 271.753 889.906 289.335 907.545L337.577 955.789H241.2C150.288 955.789 76.529 882.0840000000001 76.529 791.1179999999999zM675.813 770.107C684.283 790.69 679.566 814.275 664.0219999999999 829.9259999999999L554.238 939.758C543.519 950.426 529.4730000000001 955.787 515.431 955.787C501.38700000000006 955.787 487.34200000000004 950.426 476.62100000000004 939.758L366.951 829.927C351.192 814.276 346.582 790.691 355.05100000000004 770.108C363.468 749.63 383.56800000000004 736.229 405.76000000000005 736.229H460.64900000000006V471.56000000000006C460.64900000000006 441.16600000000005 485.14400000000006 416.6690000000001 515.538 416.6690000000001C545.88 416.6690000000001 570.321 441.16600000000005 570.321 471.56000000000006V736.229H625.21C647.402 736.2280000000001 667.451 749.63 675.813 770.107z" />
    <glyph glyph-name="fail"
      unicode="&#xE02C;"
      horiz-adv-x="1000.637" d=" M810.022 810.043C638.99 981.074 361.649 981.074 190.615 810.042C19.582000000000022 639.009 19.584000000000003 361.668 190.615 190.63700000000006C361.648 19.604000000000042 638.989 19.603000000000065 810.021 190.63700000000006C981.053 361.669 981.055 639.009 810.022 810.043zM597.897 305.18600000000004L500.3190000000001 402.76300000000003L402.834 305.278C375.867 278.312 332.131 278.216 305.16200000000003 305.18500000000006C278.146 332.201 278.29100000000005 375.89300000000003 305.25500000000005 402.8570000000001L402.74000000000007 500.3420000000001L305.16300000000007 597.9190000000001C278.24300000000005 624.8380000000001 278.2920000000001 668.624 305.16300000000007 695.4950000000001C332.03200000000004 722.3640000000001 375.82000000000005 722.4170000000001 402.74000000000007 695.4960000000001L500.3180000000001 597.9190000000001L597.8960000000001 695.4960000000001C624.8610000000001 722.461 668.46 722.5110000000001 695.474 695.4960000000001C722.441 668.528 722.49 624.9330000000001 695.475 597.9170000000001L597.898 500.3400000000001L695.4730000000001 402.7650000000001C722.392 375.84500000000014 722.4390000000001 332.15200000000016 695.4730000000001 305.18600000000015C668.604 278.31499999999994 624.818 278.265 597.897 305.18600000000004z" />
    <glyph glyph-name="fav-box"
      unicode="&#xE02D;"
      horiz-adv-x="1000.637" d=" M883.732 644.518V664.489H116.74199999999996V644.518C101.61299999999996 641.55 90.26699999999997 628.153 90.26699999999997 612.319L110.29 191.22799999999995C110.29 173.23699999999997 114.04 158.5 132.154 158.5H318.89300000000003H868.5C886.6 158.5 890.346 173.236 890.346 191.22799999999995L910.369 612.319C910.369 628.329 898.918 641.55 883.732 644.518zM773.1 343.75199999999995L797.721 200.31399999999996L668.8969999999999 268.03999999999996L540.055 200.31399999999996L564.6389999999999 343.75199999999995L460.438 445.374L604.477 466.30000000000007L668.8969999999999 596.801L733.2839999999999 466.30000000000007L877.3369999999999 445.374L773.1 343.75199999999995z M883.732 744.125C883.732 761.093 870.0369999999999 774.914 852.9119999999999 774.914H463.176C450.964 775.303 441.581 797.288 441.581 805.771V809.412C441.581 827.509 426.894 842.178 408.831 842.178H201.29C183.178 842.178 168.492 827.509 168.492 809.412L168.54399999999998 805.771C168.54399999999998 797.252 158.99999999999997 774.914 146.75199999999998 774.914H146.945C130.228 774.559 116.74199999999999 760.88 116.74199999999999 744.125V703.4069999999999H883.732V744.125z" />
    <glyph glyph-name="fav"
      unicode="&#xE02E;"
      horiz-adv-x="1000.637" d=" M787.842 103.846L517.117 246.08500000000004L246.398 103.85199999999998L298.144 405.10799999999995L79.108 618.547L381.725 662.596L517.13 936.582L652.461 662.544L955.111 618.4929999999999L736.064 405.105L787.842 103.846z" />
    <glyph glyph-name="feedback"
      unicode="&#xE02F;"
      horiz-adv-x="1000.637" d=" M753.644 905.484H246.995C163.03 905.484 94.99799999999999 837.427 94.99799999999999 753.5419999999999V399.034C94.99799999999999 315.17499999999995 163.02999999999997 247.14 246.995 247.14L348.325 95.19500000000005L449.656 247.139H753.644C837.556 247.139 905.639 315.173 905.639 399.03200000000004V753.54C905.639 837.477 837.557 905.484 753.644 905.484zM500.319 392.336H205.844V465.88800000000003H500.32V392.336zM794.794 539.505H205.84399999999994V613.124H794.794V539.505zM794.794 686.6659999999999H205.84399999999994V760.285H794.794V686.6659999999999z" />
    <glyph glyph-name="file"
      unicode="&#xE030;"
      horiz-adv-x="1000.637" d=" M773.7479999999999 227.57799999999997H226.889C136.263 227.57799999999997 62.83200000000002 300.84899999999993 62.83200000000002 391.21000000000004V554.892L281.52200000000005 773.1H719.062L937.805 554.892V391.21000000000004C937.804 300.85 864.374 227.57799999999997 773.7479999999999 227.57799999999997zM673.774 663.995H326.86100000000005L172.203 500.30999999999995H336.26000000000005V445.736C336.26000000000005 415.615 360.69200000000006 391.211 390.94700000000006 391.211H609.691C639.863 391.211 664.3760000000001 415.615 664.3760000000001 445.736V500.30999999999995H828.3810000000001L673.774 663.995z" />
    <glyph glyph-name="fold"
      unicode="&#xE031;"
      horiz-adv-x="1000.637" d=" M165.182 407.72900000000004L500.318 742.866L835.457 407.72900000000004L947.865 407.72900000000004L500.318 855.275L52.771 407.72900000000004z M165.182 145.404L500.318 480.53999999999996L835.457 145.404L947.865 145.404L500.318 592.9490000000001L52.771 145.404z" />
    <glyph glyph-name="folder"
      unicode="&#xE032;"
      horiz-adv-x="1000.637" d=" M909.976 657.393V678.759H90.44600000000005V657.393C74.32300000000005 654.219 62.196000000000055 639.916 62.196000000000055 623.009L83.59700000000005 173.08100000000002C83.59700000000005 153.85400000000004 87.59200000000006 138.08900000000006 106.92500000000005 138.08900000000006H893.711C913.043 138.08900000000006 917.038 153.85500000000002 917.038 173.08100000000002L938.439 623.009C938.4399999999999 640.093 926.241 654.219 909.976 657.393zM909.976 763.829C909.976 781.95 895.352 796.716 877.089 796.716H460.61800000000005C447.56300000000005 797.145 437.5760000000001 820.65 437.5760000000001 829.71V833.599C437.5760000000001 852.931 421.88200000000006 868.589 402.55000000000007 868.589H180.832C161.428 868.589 145.734 852.9300000000001 145.734 833.599L145.805 829.71C145.805 820.614 135.603 796.716 122.548 796.716H122.762C104.856 796.36 90.446 781.736 90.446 763.829V720.314H909.976V763.829z" />
    <glyph glyph-name="forwarding"
      unicode="&#xE033;"
      horiz-adv-x="1000.637" d=" M773.6659999999999 65.17100000000005H226.97C136.369 65.17100000000005 62.96100000000001 138.5250000000001 62.96100000000001 229.12400000000002V775.553C62.96100000000001 866.073 136.369 939.508 226.97 939.508H475.117C456.298 906.915 445.647 869.569 445.647 830.223H226.97C196.805 830.223 172.29999999999998 805.717 172.29999999999998 775.553V229.12400000000002C172.29999999999998 198.90800000000002 196.80499999999998 174.45400000000006 226.97 174.45400000000006H773.666C803.88 174.45400000000006 828.336 198.90800000000002 828.336 229.12400000000002V352.078L937.674 434.028V229.12400000000002C937.674 138.524 864.266 65.17100000000005 773.6659999999999 65.17100000000005zM697.106 458.6410000000001C687.495 451.37800000000004 675.913 447.696 664.325 447.696C655.9970000000001 447.696 647.562 449.621 639.8760000000001 453.41100000000006C621.3510000000001 462.70000000000005 609.6550000000001 481.59800000000007 609.6550000000001 502.313V554.633V556.9830000000001C436.3600000000002 556.9830000000001 290.10000000000014 441.77200000000005 242.9870000000001 283.74300000000005C232.71000000000012 318.446 226.9700000000001 355.0680000000001 226.9700000000001 393.0820000000001C226.9700000000001 604.2840000000001 398.29200000000014 775.5540000000001 609.6550000000001 775.5540000000001V830.224C609.6550000000001 850.9380000000001 621.3500000000001 869.865 639.8760000000001 879.1000000000001C647.5630000000001 882.9170000000001 655.9970000000001 884.839 664.325 884.839C675.913 884.839 687.495 881.128 697.106 873.8940000000001L915.783 709.939C929.5600000000001 699.663 937.6750000000001 683.432 937.6750000000001 666.268C937.6750000000001 649.05 929.561 632.874 915.783 622.596L697.106 458.6410000000001z" />
    <glyph glyph-name="full"
      unicode="&#xE034;"
      horiz-adv-x="1000.637" d=" M409.459 942.6179999999999H68.179L68.32900000000001 602.4939999999999L181.868 716.077L333.29499999999996 564.6469999999999L450.131 681.485L298.724 832.91L409.459 942.6179999999999zM333.295 445.54200000000003L181.868 294.11800000000005L68.329 407.69899999999996L68.17899999999999 66.20499999999993H409.45899999999995L298.724 177.28099999999995L450.131 328.7109999999999L333.295 445.54200000000003zM677.122 564.648L828.528 716.078L942.066 602.495L942.238 942.619H600.9580000000001L711.6930000000001 832.9110000000001L560.286 681.486L677.122 564.648zM828.529 294.11800000000005L677.122 445.54200000000003L560.286 328.71000000000004L711.693 177.2800000000001L600.958 66.20399999999995H942.2379999999999L942.0659999999999 407.698L828.529 294.11800000000005z" />
    <glyph glyph-name="get-mail"
      unicode="&#xE035;"
      horiz-adv-x="1000.637" d=" M461.598 516.358C472.348 505.68899999999996 486.358 500.312 500.31800000000004 500.312C514.2769999999999 500.312 528.288 505.68899999999996 539.038 516.358L648.57 625.836C664.19 641.452 668.894 665.038 660.4440000000001 685.468C651.993 705.899 631.9920000000001 719.269 609.849 719.269H555.191V883.514C555.191 913.732 530.587 938.28 500.42400000000004 938.28C470.206 938.28 445.658 913.7860000000001 445.658 883.514V719.269H390.786C368.669 719.269 348.617 705.899 340.192 685.468C331.741 665.037 336.395 641.451 352.06600000000003 625.836L461.598 516.358zM774.148 719.27H764.304C777.144 683.117 777.144 644.609 764.841 609.791H774.148C787.519 609.791 799.393 604.416 808.912 596.474L500.31800000000004 390.836L191.779 596.474C201.299 604.416 213.11599999999999 609.791 226.489 609.791H235.79500000000002C223.466 644.609 223.466 683.1170000000001 236.35700000000003 719.27H226.48900000000003C135.78200000000004 719.27 62.19100000000003 645.785 62.19100000000003 555.0790000000001V226.59100000000012C62.19100000000003 135.8850000000001 135.72800000000004 62.40000000000009 226.48900000000003 62.40000000000009H774.148C864.96 62.40000000000009 938.445 135.8850000000001 938.445 226.59100000000012V555.078C938.4449999999999 645.784 864.959 719.27 774.148 719.27zM828.914 281.355L664.616 336.121L812.867 187.92500000000007C803.029 178.0300000000001 789.338 171.8800000000001 774.1479999999999 171.8800000000001H226.489C211.38 171.8800000000001 197.68800000000002 178.0300000000001 187.769 187.92500000000007L336.02000000000004 336.1210000000001L171.72299999999998 281.355V500.313L500.31800000000004 281.355L828.914 500.312V281.355z" />
    <glyph glyph-name="group"
      unicode="&#xE036;"
      horiz-adv-x="1000.637" d=" M530.852 331.01300000000003C439.996 344.557 446.66599999999994 392.57000000000005 445.92999999999995 395.884C446.1209999999999 404.259 446.35299999999995 442.83299999999997 446.35299999999995 442.83299999999997S498.58099999999996 477.08299999999997 514.9219999999999 523.643C540.6329999999999 539.881 552.1719999999999 542.1389999999999 556.4279999999999 560.846C556.4279999999999 560.846 565.1039999999999 631.576 537.4829999999998 631.576C537.4829999999998 631.576 525.9699999999998 629.7280000000001 529.6529999999998 646.3C533.3369999999998 662.873 529.9259999999998 712.8910000000001 528.0849999999998 731.3040000000001C526.2429999999998 749.7180000000001 531.6179999999998 802.3420000000001 492.9479999999998 809.7070000000001C466.5539999999998 814.618 463.4859999999998 807.164 450.5949999999998 809.0050000000001C437.7049999999998 810.839 422.3609999999998 849.9180000000001 398.4219999999998 849.9180000000001L348.7039999999998 839.75C324.7659999999998 839.75 328.4489999999998 832.3910000000001 315.55799999999977 830.5430000000001C302.6679999999998 828.7080000000001 318.1769999999998 832.3910000000001 279.49399999999974 825.0250000000001C240.82499999999976 817.652 227.17099999999974 767.942 225.32899999999975 749.5210000000001C223.48799999999974 731.114 223.46099999999976 677.5900000000001 224.70199999999974 649.9830000000001C228.37099999999975 633.403 213.31199999999973 633.403 213.31199999999973 633.403C190.13699999999972 634.8970000000002 200.54499999999973 562.6930000000001 200.54499999999973 562.6930000000001C203.88699999999974 544.9000000000001 199.35799999999972 536.0340000000001 233.66299999999973 522.2570000000001C250.00399999999973 475.7030000000001 305.55899999999974 452.1890000000001 305.55899999999974 452.1890000000001S307.61899999999974 422.35800000000006 308.2739999999997 401.0930000000001C304.7819999999997 402.83900000000006 315.9529999999997 346.7510000000001 209.3829999999997 331.0110000000001C102.801 315.299 94.617 280.77700000000004 74.526 261.558C54.434 242.32500000000005 55.961 151.87800000000004 55.961 151.87800000000004H698.201C698.201 151.87800000000004 696.018 242.32500000000005 675.927 261.5580000000001C655.835 280.77700000000004 637.435 315.299 530.852 331.01300000000003zM944.703 152.615C944.703 152.615 941.348 216.71000000000004 925.962 231.44100000000003C910.563 246.15800000000002 896.458 272.62 814.7819999999999 284.664C748.819 294.10299999999995 740.0479999999999 338.529 739.4889999999999 341.06600000000003C739.6389999999999 347.49 740.7439999999999 374.71500000000003 740.7439999999999 374.71500000000003S785.06 396.6070000000001 797.5819999999999 432.27600000000007C817.2919999999999 444.7160000000001 818.2469999999998 446.4620000000001 821.5069999999998 460.81100000000004C821.5069999999998 460.81100000000004 822.9249999999998 514.989 801.7559999999999 514.989C801.7559999999999 514.989 792.9309999999998 513.5840000000001 795.7549999999999 526.282C797.7049999999999 545.0920000000001 796.3269999999999 579.9960000000001 794.9229999999999 594.094C793.5039999999999 608.2040000000001 798.9329999999999 648.552 769.2929999999999 654.1850000000001C749.0639999999999 657.9630000000001 758.5029999999999 652.2350000000001 748.6279999999999 653.6460000000001C738.7529999999999 655.0640000000001 726.982 682.835 708.6489999999999 682.835L670.5389999999999 674.5350000000001C652.1929999999999 674.5350000000001 655.0169999999998 668.8880000000001 645.1419999999998 667.4760000000001S652.3839999999998 668.888 622.7459999999999 663.241C593.1049999999999 657.594 589.1909999999999 619.4970000000001 587.7859999999998 605.3800000000001C586.3669999999998 591.2830000000001 585.9859999999999 550.268 586.9269999999998 529.105C589.7499999999998 516.399 573.3279999999997 516.399 573.3279999999997 516.399C555.5679999999998 517.538 560.0569999999998 462.21400000000006 560.0569999999998 462.21400000000006C562.6199999999998 448.5730000000001 559.1429999999998 441.7800000000001 585.4399999999998 431.22400000000005C597.9609999999998 395.54100000000005 633.4669999999999 377.523 633.4669999999999 377.523S629.8109999999999 352.91700000000003 630.3029999999999 336.6170000000001C662.0159999999998 317.99800000000005 685.8579999999998 309.5140000000001 705.7849999999999 272.6590000000001C727.8689999999998 210.48800000000006 727.2149999999998 152.61300000000006 727.2149999999998 152.61300000000006C833.687 152.615 944.703 152.615 944.703 152.615z" />
    <glyph glyph-name="groupchat"
      unicode="&#xE037;"
      horiz-adv-x="1000.637" d=" M373.521 337.59299999999996C340.53700000000003 381.1049999999999 323.833 430.66499999999996 324.831 481.41499999999996C327.66200000000003 622.7289999999999 471.068 737.653 644.53 737.653L652.06 737.588C694.2189999999999 736.7529999999999 734.222 729.1899999999999 770.911 716.509C708.8939999999999 806.073 590.1419999999999 868.635 451.88899999999995 871.3689999999999L442.746 871.435H442.55699999999996H442.36499999999995C243.02499999999995 871.435 78.31599999999997 744.185 75.16399999999993 587.81C74.13099999999993 533.5819999999999 92.28199999999993 480.256 127.61999999999993 433.6249999999999C149.56899999999993 405.49799999999993 155.42399999999992 365.49599999999987 145.44999999999993 314.45299999999986L128.97099999999995 230.5859999999999L207.46599999999995 264.37699999999984L312.991 309.85199999999986C334.746 303.15999999999985 357.209 298.5239999999999 379.92999999999995 295.1759999999998C381.858 310.4 381.57 327.29600000000005 373.521 337.59299999999996z M403.387 209.60299999999995L546.097 271.126C576.7139999999999 261.337 610.079 255.735 645.129 255.13199999999995C800.7330000000001 251.947 928.5350000000001 347.7209999999999 931.0360000000001 469.0369999999999C933.489 590.3459999999999 809.192 691.0339999999999 653.83 693.934C498.27500000000003 697.1589999999999 370.42600000000004 601.3449999999999 367.934 480.27699999999993C367.209 438.05099999999993 381.51300000000003 398.405 407.33700000000005 364.361C451.656 307.51199999999994 403.387 209.60299999999995 403.387 209.60299999999995z" />
    <glyph glyph-name="help"
      unicode="&#xE038;"
      horiz-adv-x="1000.637" d=" M500.318 921.6179999999999C267.65099999999995 921.6179999999999 79.03699999999998 733.005 79.03699999999998 500.337C79.03699999999998 267.673 267.652 79.06000000000006 500.318 79.06000000000006C732.983 79.06000000000006 921.5989999999999 267.6730000000001 921.5989999999999 500.33700000000005C921.6 733.005 732.983 921.6179999999999 500.318 921.6179999999999zM552.325 203.35500000000002H438.447V314.525H552.324L552.325 203.35500000000002L552.325 203.35500000000002zM591.695 462.009C560.0060000000001 440.88200000000006 545.433 416.08500000000004 546.902 386.03200000000004V338.927H446.58V387.73199999999997C444.49 445.121 471.322 494.20899999999995 526.284 532.904C575.768 566.4 597.513 599.558 593.163 634.468C587.349 676.8309999999999 563.231 697.843 515.044 702.3629999999999L507.361 702.48C449.801 702.48 417.43399999999997 672.7069999999999 405.573 608.8219999999999L400.993 584.3059999999999L301.635 617.4659999999999L306.154 636.7279999999998C331.008 741.7939999999999 401.957 797.3219999999999 511.427 797.3219999999999L523.234 797.1519999999999C630.053 791.1049999999999 690.551 735.4679999999998 698.6880000000001 636.2179999999998C702.807 571.937 666.822 513.413 591.695 462.009z" />
    <glyph glyph-name="history-record"
      unicode="&#xE039;"
      horiz-adv-x="1000.637" d=" M291.714 646.86H505.56399999999996C518.111 646.86 528.15 651.716 528.15 657.605V709.5409999999999C528.15 715.428 518.111 720.1890000000001 505.56399999999996 720.1890000000001H291.71399999999994C279.42199999999997 720.1890000000001 269.31899999999996 715.426 269.31899999999996 709.5409999999999V657.605C269.319 651.716 279.422 646.86 291.714 646.86z M745.73 270.15999999999997H618.566C608.08 270.15999999999997 599.586 278.71799999999996 599.586 289.20899999999995V409.16499999999996C599.586 419.7199999999999 608.08 428.21399999999994 618.566 428.21399999999994C629.125 428.21399999999994 637.6170000000001 419.7199999999999 637.6170000000001 409.16499999999996V304.26800000000003H745.73C756.22 304.26800000000003 764.716 297.8960000000001 764.716 287.409C764.717 276.91600000000005 756.223 270.15999999999997 745.73 270.15999999999997L745.73 270.15999999999997z M634.979 522.106C518.5 522.106 424.02700000000004 426.927 424.02700000000004 309.54499999999996C424.02700000000004 192.16199999999992 518.498 97.01499999999999 634.979 97.01499999999999C751.461 97.01499999999999 845.9340000000001 192.16200000000003 845.9340000000001 309.54499999999996C845.934 426.927 751.461 522.106 634.979 522.106zM634.979 146.40700000000004C545.59 146.40700000000004 473.062 219.45000000000005 473.062 309.547C473.062 399.64300000000003 545.59 472.71799999999996 634.979 472.71799999999996C724.432 472.71799999999996 796.893 399.6429999999999 796.893 309.5469999999999S724.434 146.40700000000004 634.979 146.40700000000004z M845.934 186.88599999999997C824.631 149.88099999999997 794.0649999999999 119.05700000000002 757.3829999999999 97.52999999999997H845.934V186.88599999999997z M450.605 149.303H203.357V855.977L542.632 855.946C635.0419999999999 855.977 590.5129999999999 651.973 590.5129999999999 651.973S795.9309999999999 703.971 798.632 606.058V491.0559999999999C817.2299999999999 474.03499999999997 833.2529999999999 454.27699999999993 845.935 432.2359999999999V668.5129999999999L610.975 903.663H154.833L154.702 97.55899999999997H512.578C489.217 111.303 468.236 128.77300000000002 450.605 149.303z M742.836 529.4100000000001V552.03C742.836 557.952 736.018 562.715 727.713 562.715H717.4839999999999H454.146H284.439C276.13800000000003 562.715 269.319 558.0160000000001 269.319 552.095V500.13100000000003C269.319 494.24 276.13800000000003 489.446 284.439 489.446H294.73600000000005H469.59C513.093 530.021 571.1379999999999 555.0540000000001 634.98 555.0540000000001C673.723 555.056 710.275 545.659 742.836 529.4100000000001z M317.389 408.84299999999996C276.139 408.84299999999996 269.32 404.049 269.32 398.19399999999996V346.1959999999999C269.32 340.3399999999999 276.139 335.54599999999994 284.44 335.54599999999994H392.492C395.197 361.41599999999994 402.01500000000004 385.9999999999999 412.119 408.8449999999999L317.389 408.84299999999996L317.389 408.84299999999996z" />
    <glyph glyph-name="history"
      unicode="&#xE03A;"
      horiz-adv-x="1000.637" d=" M500.371 935.278C260.136 935.278 65.406 740.549 65.406 500.338S260.135 65.39999999999998 500.371 65.39999999999998C740.557 65.39999999999998 935.23 260.126 935.23 500.33799999999997S740.557 935.278 500.371 935.278zM753.522 454.111H505.531C476.233 454.111 454.968 475.379 454.968 504.709V769.415C454.968 798.744 476.233 822.553 505.531 822.553C534.891 822.553 558.729 798.744 558.729 769.415V558.939L753.522 557.8409999999999C782.8810000000001 557.8409999999999 806.6590000000001 534.064 806.6590000000001 504.70799999999997C806.658 475.37800000000004 782.881 454.111 753.522 454.111z" />
    <glyph glyph-name="home"
      unicode="&#xE03B;"
      horiz-adv-x="1000.637" d=" M775.694 883.705H885.444V645.642L775.694 771.096V883.705zM830.57 499.578L501.319 875.853L172.068 499.578H62.319L446.444 938.604H556.194L940.319 499.578H830.57zM830.57 428.70000000000005V60.603000000000065H611.07V334.99C611.07 365.27700000000004 586.499 389.836 556.1940000000001 389.836H446.4440000000001C416.13900000000007 389.836 391.5690000000001 365.27700000000004 391.5690000000001 334.99V60.60399999999993H172.068V428.7539999999999L501.318 792.5139999999999L830.57 428.70000000000005z" />
    <glyph glyph-name="house"
      unicode="&#xE03C;"
      horiz-adv-x="1000.637" d=" M787.842 103.846L517.117 246.08500000000004L246.398 103.85199999999998L298.144 405.10799999999995L79.108 618.547L381.725 662.596L517.13 936.582L652.461 662.544L955.111 618.4929999999999L736.064 405.105L787.842 103.846z" />
    <glyph glyph-name="human-relations"
      unicode="&#xE03D;"
      horiz-adv-x="1000.637" d=" M706.301 286.793C654.764 286.793 609.567 259.602 584.3480000000001 218.76700000000005L354.474 351.52V496.23199999999997L482.571 624.328C521.948 586.112 575.684 562.577 634.915 562.577C755.833 562.577 853.794 660.572 853.794 781.457C853.794 902.376 755.833 1000.3389999999999 634.915 1000.3389999999999C514.0609999999999 1000.3389999999999 416.03299999999996 902.376 416.03299999999996 781.457C416.03299999999996 733.737 431.294 689.572 457.22399999999993 653.621L325.699 522.065H146.844V312.14H345.291L568.5699999999999 183.26799999999992C564.949 170.6579999999999 563.0089999999999 157.33799999999997 563.0089999999999 143.56599999999992C563.0089999999999 64.45099999999991 627.1539999999999 0.33799999999985175 706.3 0.33799999999985175C785.382 0.33799999999985175 849.5269999999999 64.44999999999982 849.5269999999999 143.56599999999992C849.528 222.67899999999997 785.383 286.793 706.301 286.793zM634.914 923.746C713.478 923.746 777.17 860.0219999999999 777.17 781.457C777.17 702.893 713.4789999999999 639.2 634.914 639.2C556.348 639.2 492.657 702.892 492.657 781.457C492.657 860.0219999999999 556.348 923.746 634.914 923.746zM287.16 381.749H214.156V454.784H287.16V381.749zM706.301 69.07500000000005C665.1120000000001 69.07500000000005 631.811 102.44000000000005 631.811 143.56600000000003C631.811 184.69000000000005 665.1120000000001 218.05600000000004 706.301 218.05600000000004C747.426 218.05600000000004 780.7270000000001 184.69000000000005 780.7270000000001 143.56600000000003C780.727 102.43999999999994 747.426 69.07500000000005 706.301 69.07500000000005z" />
    <glyph glyph-name="icon"
      unicode="&#xE03E;"
      horiz-adv-x="1000.637" d=" M65.649 796.734V792.2760000000001H127.473C147.111 836.794 182.829 872.513 227.405 892.208V953.973H223.006C146.322 933.638 86.042 873.417 65.649 796.734z M127.415 243.115H65.649V238.74699999999996C86.043 162.06099999999992 146.322 101.755 223.005 81.35799999999995H227.346V143.125C182.829 162.93600000000004 147.022 198.59799999999996 127.415 243.115z M299.719 908.611C301.932 908.698 304.08799999999997 908.931 306.301 908.931H465.72799999999995V953.973H299.719V908.611z M299.719 126.86699999999996V81.356H465.72799999999995V126.46000000000004H306.301C304.087 126.46100000000001 301.932 126.75199999999995 299.719 126.86699999999996z M538.067 908.931H697.494C699.707 908.931 701.8050000000001 908.698 704.019 908.611V953.973H538.067V908.931z M780.761 953.973H776.506V892.208C821.025 872.513 856.803 836.794 876.381 792.2760000000001H938.264V796.558C917.867 873.359 857.56 933.638 780.761 953.973z M893.163 713.2629999999999V553.838H938.264V719.906H892.755C892.871 717.75 893.163 715.595 893.163 713.2629999999999z M110.633 713.2629999999999C110.633 715.594 110.925 717.691 111.012 719.906H65.649V553.838H110.632L110.633 713.2629999999999L110.633 713.2629999999999z M893.163 322.129C893.163 319.91600000000005 892.871 317.818 892.755 315.602H938.264V481.6719999999999H893.163V322.129L893.163 322.129z M110.633 322.129V481.672H65.649V315.602H111.011C110.925 317.70000000000005 110.633 319.91600000000005 110.633 322.129z M776.506 143.24199999999996V81.47499999999991H780.761C857.5609999999999 101.86899999999991 917.867 162.12099999999987 938.2639999999999 238.91599999999994V243.22899999999993H876.4979999999999C856.684 198.59799999999996 821.023 162.93600000000004 776.506 143.24199999999996z M538.067 126.46100000000001V81.35699999999997H704.02V126.86799999999994C701.804 126.75299999999993 699.707 126.46199999999999 697.495 126.46199999999999H538.067z M240.401 688.832H305.28000000000003V636.126H240.401z M240.401 571.448H305.28000000000003V346.49799999999993H240.401z M372.989 688.832L362.732 688.832L362.732 401.74L362.732 346.55600000000004L420.129 346.55600000000004L532.706 346.55600000000004L532.706 401.74L420.129 401.74L420.129 636.126L542.202 636.126L542.202 688.832L420.129 688.832z M592.49 688.832V646.9939999999999V636.127V405.294V367.01V346.499H708.503H755.12H763.511V636.126V641.0219999999999V688.832H592.49L592.49 688.832zM708.503 405.293H648.66V636.126H708.5029999999999V405.293z" />
    <glyph glyph-name="id-card"
      unicode="&#xE03F;"
      horiz-adv-x="1000.637" d=" M773.751 281.69899999999996H828.438V336.33399999999995H773.751V281.69899999999996zM664.378 281.69899999999996H719.066V336.33399999999995H664.378V281.69899999999996zM883.125 828.299H117.513C87.232 828.299 62.82600000000001 803.865 62.82600000000001 773.6659999999999V227.06599999999992C62.82600000000001 196.83799999999997 87.232 172.3789999999999 117.513 172.3789999999999H883.124C913.352 172.3789999999999 937.811 196.83799999999985 937.811 227.06599999999992V773.6659999999999C937.811 803.866 913.352 828.299 883.125 828.299zM883.125 227.06600000000003H117.513V773.719H883.124L883.125 227.06600000000003L883.125 227.06600000000003zM500.266 281.69899999999996H609.693V336.33399999999995H500.266V281.69899999999996zM390.946 719.0319999999999H172.2V445.6529999999999H390.946V719.0319999999999zM281.573 336.33399999999995H172.2V281.69899999999996H281.573V336.33399999999995zM336.259 281.69899999999996H445.632V336.33399999999995H336.259V281.69899999999996zM828.438 719.14H445.632V664.453H828.438V719.14zM828.438 609.767H445.632V555.079H828.438V609.767zM500.266 391.073H609.693V445.70799999999997H500.266V391.073zM773.751 391.073H828.438V445.70799999999997H773.751V391.073zM664.378 391.073H719.066V445.70799999999997H664.378V391.073z" />
    <glyph glyph-name="idcard"
      unicode="&#xE040;"
      horiz-adv-x="1000.637" d=" M860.107 784.8820000000001H140.40699999999993C96.50099999999992 784.8820000000001 60.70299999999993 751.456 60.70299999999993 710.482V290.198C60.70299999999993 249.22299999999996 96.50099999999993 215.79599999999994 140.40699999999993 215.79599999999994H860.107C904.0749999999999 215.79599999999994 939.935 249.22399999999993 939.935 290.198V710.482C939.935 751.456 904.074 784.8820000000001 860.107 784.8820000000001zM665.84 655.9110000000001C705.067 655.9110000000001 736.874 624.042 736.874 584.9390000000001C736.874 545.648 705.066 513.716 665.84 513.716C626.486 513.716 594.678 545.648 594.678 584.9390000000001C594.678 624.0419999999999 626.486 655.9110000000001 665.84 655.9110000000001zM402.406 362.105H135.231V400.337H402.407V362.105zM402.406 476.173H135.231V514.528H402.407V476.173zM402.406 590.489H135.231V628.658H402.407V590.489zM817.948 371.337C817.948 371.337 818.072 324.999 766.308 324.999H665.84H565.181C513.541 324.999 513.541 371.337 513.541 371.337V417.23699999999997C514.787 448.669 537.0550000000001 475.36199999999997 560.254 490.20399999999995C576.033 500.43199999999996 592.1850000000001 505.04799999999994 603.721 507.292L665.84 437.31899999999996L727.645 507.292C739.18 505.17199999999997 755.395 500.43199999999996 771.361 490.20399999999995C794.502 475.36199999999997 816.703 448.669 817.949 417.23699999999997V371.337z" />
    <glyph glyph-name="image"
      unicode="&#xE041;"
      horiz-adv-x="1000.637" d=" M416.44100000000003 334.35800000000006C375.74500000000006 334.35800000000006 312.031 495.231 281.19 430.22C268.431 403.169 246.99699999999999 345.476 226.41399999999996 299.37300000000005V281.2900000000001C226.41399999999996 251.12200000000007 250.96399999999997 226.5010000000001 281.19 226.5010000000001H719.456C749.6850000000001 226.5010000000001 774.246 251.12200000000007 774.246 281.2900000000001V306.85500000000013C743.322 376.5150000000001 703.192 491.94900000000007 664.679 536.2560000000001C585.9169999999999 626.976 491.766 334.35800000000006 416.44100000000003 334.35800000000006zM774.246 938.424H226.414C135.61299999999997 938.424 62.04599999999999 864.833 62.04599999999999 774.128V226.50200000000007C62.04599999999999 135.87900000000002 135.61299999999997 62.25300000000004 226.414 62.25300000000004H774.246C865.034 62.25300000000004 938.591 135.87900000000002 938.591 226.50200000000007V774.1279999999999C938.5899999999999 864.8340000000001 865.034 938.424 774.246 938.424zM829.023 226.50200000000007C829.023 196.33400000000006 804.472 171.83100000000002 774.246 171.83100000000002H226.414C196.17399999999998 171.83100000000002 171.623 196.33400000000006 171.623 226.50200000000007V774.1279999999999C171.623 804.356 196.102 828.912 226.414 828.912H774.246C804.473 828.912 829.023 804.409 829.023 774.1279999999999V226.50200000000007zM308.58500000000004 609.885C353.95500000000004 609.885 390.757 646.592 390.757 692.01C390.757 737.427 353.955 774.181 308.585 774.181C263.167 774.181 226.41399999999996 737.427 226.41399999999996 692.01C226.414 646.592 263.214 609.885 308.58500000000004 609.885z" />
    <glyph glyph-name="import"
      unicode="&#xE042;"
      horiz-adv-x="1000.637" d=" M78.119 243.20000000000005V790.144C78.119 880.785 151.50799999999998 954.226 242.149 954.226H351.486V844.838H242.149C211.917 844.838 187.45600000000002 820.324 187.45600000000002 790.145V243.20299999999997C187.45600000000002 212.97299999999996 211.91700000000003 188.51 242.149 188.51H788.823C819 188.51 843.515 212.97299999999996 843.515 243.20299999999997V790.144C843.515 820.3240000000001 818.9979999999999 844.837 788.823 844.837H679.488V954.226H788.8230000000001C879.383 954.226 952.8510000000001 880.785 952.8510000000001 790.144V243.20100000000002C952.8510000000001 152.61599999999999 879.4350000000002 79.11900000000003 788.8230000000001 79.11900000000003H242.149C151.507 79.11800000000005 78.119 152.61599999999999 78.119 243.20000000000005zM675.374 621.694C683.815 601.236 679.166 577.734 663.518 562.086L554.184 452.697C543.528 442.04100000000005 529.507 436.674 515.5659999999999 436.674C501.5739999999999 436.674 487.5759999999999 442.04099999999994 476.89699999999993 452.697L367.505 562.086C351.907 577.734 347.266 601.2370000000001 355.7 621.694C364.087 642.097 384.063 655.4490000000001 406.179 655.4490000000001H460.81699999999995V899.533C460.81699999999995 929.79 485.27799999999996 954.226 515.4609999999999 954.226C545.7179999999998 954.226 570.1539999999999 929.71 570.1539999999999 899.533V655.448H624.8469999999999C646.934 655.4490000000001 666.963 642.097 675.374 621.694z" />
    <glyph glyph-name="list"
      unicode="&#xE043;"
      horiz-adv-x="1000.637" d=" M774.9699999999999 62.41100000000006H227.329C136.572 62.41100000000006 63.036 136.0050000000001 63.036 226.59900000000005V774.028C63.036 864.704 136.572 938.266 227.329 938.266H774.971C865.675 938.266 939.265 864.758 939.265 774.028V226.60000000000002C939.264 136.005 865.674 62.41100000000006 774.9699999999999 62.41100000000006zM829.736 774.028C829.736 804.244 805.188 828.7909999999999 774.97 828.7909999999999H227.329C197.032 828.7909999999999 172.565 804.244 172.565 774.028V226.60000000000002C172.565 196.43399999999997 197.032 171.89100000000008 227.329 171.89100000000008H774.971C805.189 171.89100000000008 829.737 196.43400000000008 829.737 226.60000000000014V774.028zM501.15000000000003 609.788V664.553H720.207V609.788H501.15000000000003zM282.093 445.602H446.386V281.36400000000003H282.093V445.602zM336.857 336.12700000000007H391.62100000000004V390.8380000000001H336.857V336.12700000000007zM282.093 719.316H446.386V555.078H282.093V719.316zM336.857 609.788H391.62100000000004V664.553H336.857V609.788zM720.207 336.12700000000007H501.15000000000003V390.8380000000001H720.207V336.12700000000007z" />
    <glyph glyph-name="love"
      unicode="&#xE044;"
      horiz-adv-x="1000.637" d=" M893.367 770.064C852.175 836.735 786.24 877.381 712.5039999999999 881.582C610.1789999999999 887.394 544.7929999999999 840.8820000000001 507.8839999999999 792.134C507.3119999999999 792.87 504.8829999999999 792.87 504.3109999999999 792.134C467.40199999999993 840.8820000000001 402.03899999999993 887.393 299.6909999999999 881.582C225.97799999999992 877.381 160.01899999999992 836.735 118.85399999999993 770.0640000000001C57.612 670.876 71.36 533.908 153.935 421.10900000000004C176.549 390.255 203.611 354.30000000000007 232.69299999999998 321.81100000000004C304.164 242.20900000000006 391.236 167.84900000000005 484.587 106.79500000000007L504.312 93.89400000000012L506.11 95.06400000000008L507.885 93.89400000000012L527.636 106.79500000000007C620.959 167.84900000000005 708.0609999999999 242.20900000000006 779.5319999999999 321.81100000000004C808.6109999999999 354.30000000000007 835.646 390.254 858.261 421.10900000000004C940.859 533.908 954.61 670.876 893.367 770.064z" />
    <glyph glyph-name="mail"
      unicode="&#xE045;"
      horiz-adv-x="1000.637" d=" M773.405 175.28100000000006H226.585C136.02 175.28100000000006 62.54000000000002 248.65100000000007 62.54000000000002 339.2170000000001V667.149C62.54000000000002 757.689 136.01900000000003 831.14 226.585 831.14H773.4039999999999C864.0239999999999 831.14 937.4499999999999 757.742 937.4499999999999 667.149V339.216C937.451 248.65100000000007 864.025 175.28100000000006 773.405 175.28100000000006zM226.585 721.831C213.23600000000002 721.831 201.434 716.4639999999999 191.929 708.481L499.99500000000006 503.211L808.115 708.481C798.609 716.4639999999999 786.754 721.831 773.404 721.831H226.585zM828.0849999999999 612.521L499.99500000000006 393.898L171.905 612.521V393.898L335.951 448.472L187.924 300.55500000000006C197.88400000000001 290.624 211.555 284.538 226.586 284.538H773.405C788.4639999999999 284.538 802.134 290.624 812.068 300.55500000000006L664.0409999999999 448.47300000000007L828.0849999999999 393.8990000000001V612.521z" />
    <glyph glyph-name="mailbox"
      unicode="&#xE046;"
      horiz-adv-x="1000.637" d=" M821.377 773.548H251.459H167.87C167.87 773.548 122.429 773.21 122.429 723.665V332.75800000000004V279.2030000000001C122.429 279.2030000000001 119.87100000000001 228.21000000000004 172.11700000000002 227.58300000000008H823.258C823.258 227.58300000000008 878.163 218.11700000000008 878.163 285.53100000000006V721.928C878.163 721.928 882.463 771.039 821.377 773.548zM250.83 708.697H739.525L530.429 500.759C530.429 500.759 493.294 455.946 458.046 500.759L240.16299999999998 708.069L250.83 708.697zM804.379 333.38800000000003C804.379 333.38800000000003 804.379 294.32000000000005 773.522 294.948H230.065C230.065 294.948 190.42 286.159 189.115 332.76V655.77L407.627 449.86199999999997L447.95300000000003 410.84299999999996C447.95300000000003 410.84299999999996 495.18 361.0559999999999 540.52 410.84299999999996L804.3779999999999 669.6289999999999V333.38800000000003z" />
    <glyph glyph-name="management"
      unicode="&#xE047;"
      horiz-adv-x="1000.637" d=" M826.572 369.24800000000005V532.6859999999999C826.572 638.5889999999999 723.542 697.683 656.141 724.999C656.055 818.262 580.425 893.8399999999999 487.143 893.8399999999999C393.851 893.8399999999999 318.216 818.247 318.144 724.971C250.65800000000002 697.611 147.714 638.511 147.714 532.687V369.24800000000005H56.277V138.014H287.51V369.24800000000005H196.012V532.6859999999999C196.012 605.239 269.68600000000004 651.121 325.478 675.4689999999999C344.178 614.161 396.786 567.6419999999999 461.456 557.78V369.25H370.01800000000003V138.01599999999996H601.25V369.24800000000005H509.752V557.3489999999999C575.869 566.19 629.883 613.254 648.845 675.592C704.589 651.342 778.2760000000001 605.547 778.2760000000001 532.685V369.24699999999996H686.7760000000001V138.014H918.009V369.24800000000005H826.572z" />
    <glyph glyph-name="map"
      unicode="&#xE048;"
      horiz-adv-x="1000.637" d=" M772.873 936.238H227.766C137.43 936.238 64.23399999999998 863.0160000000001 64.23399999999998 772.759V227.86300000000006C64.23399999999998 137.58400000000006 137.42899999999997 64.44000000000005 227.766 64.44000000000005H772.872C863.208 64.44000000000005 936.403 137.58400000000006 936.403 227.86300000000006V772.759C936.405 863.016 863.209 936.238 772.873 936.238zM698.063 632.1410000000001H763.979V566.2280000000001H698.0630000000001V632.1410000000001zM302.575 829.756H368.49V763.906H302.575V829.756zM170.746 763.907H236.661V697.9929999999999H170.74599999999998V763.907zM302.575 632.1410000000001V566.2280000000001H236.65999999999997V632.1410000000001H302.575zM368.49 302.69899999999996H302.575V236.78599999999994H368.49V170.86699999999996H302.575V236.78599999999994H236.65999999999997V170.86699999999996H170.74499999999995V236.78599999999994H236.65999999999997V302.698H170.74499999999995V368.61H236.65999999999997V302.69899999999996H302.575V368.61199999999997H368.49V302.69899999999996zM368.49 566.2280000000001H434.404V500.31100000000004H368.49V566.2280000000001zM500.32 236.78499999999997H434.404V302.698H500.32V236.78499999999997zM500.32 566.2280000000001H566.233V500.31100000000004H500.32V566.2280000000001zM632.152 236.78499999999997H566.2330000000001V302.698H632.152V236.78499999999997zM632.152 632.1410000000001H566.2330000000001V697.993H632.152V632.1410000000001zM763.979 302.69899999999996H698.0630000000001V368.61199999999997H763.979V302.69899999999996zM829.893 434.399H763.979V500.31100000000004H829.893V434.399z" />
    <glyph glyph-name="media"
      unicode="&#xE049;"
      horiz-adv-x="1000.637" d=" M563.696 670.854L761.266 918.405L725.9939999999999 946.539L506.025 670.854H502.395L346.048 795.591L321.455 764.774L439.11199999999997 670.855H157.11199999999997V96.14700000000005H880.51V670.854H563.696zM638.543 150.03099999999995C615.171 150.03099999999995 596.252 168.91999999999996 596.252 192.26099999999997C596.252 215.57399999999996 615.1709999999999 234.52099999999996 638.5429999999999 234.52099999999996C661.8549999999999 234.52099999999996 680.7729999999999 215.57399999999996 680.7729999999999 192.26099999999997C680.773 168.91899999999998 661.854 150.03099999999995 638.543 150.03099999999995zM745.704 150.03099999999995C722.3309999999999 150.03099999999995 703.414 168.91999999999996 703.414 192.26099999999997C703.414 215.57399999999996 722.331 234.52099999999996 745.704 234.52099999999996C769.0169999999999 234.52099999999996 787.933 215.57399999999996 787.933 192.26099999999997C787.934 168.91899999999998 769.017 150.03099999999995 745.704 150.03099999999995zM812.894 278.70399999999995H224.667V610.012H812.894V278.70399999999995z" />
    <glyph glyph-name="menu"
      unicode="&#xE04A;"
      horiz-adv-x="1000.637" d=" M900.512 757.971H383.008C354.50399999999996 757.971 331.39099999999996 781.0840000000001 331.39099999999996 809.588C331.39099999999996 838.093 354.50399999999996 861.201 383.008 861.201H900.512C929.016 861.201 952.1289999999999 838.093 952.1289999999999 809.588C952.129 781.0840000000001 929.016 757.971 900.512 757.971z M900.512 448.725H383.008C354.50399999999996 448.725 331.39099999999996 471.837 331.39099999999996 500.341C331.39099999999996 528.846 354.50399999999996 551.9590000000001 383.008 551.9590000000001H900.512C929.016 551.9590000000001 952.1289999999999 528.846 952.1289999999999 500.341C952.129 471.837 929.016 448.725 900.512 448.725z M900.512 139.48199999999997H383.008C354.50399999999996 139.48199999999997 331.39099999999996 162.58999999999992 331.39099999999996 191.09399999999994C331.39099999999996 219.59899999999993 354.50399999999996 242.71299999999997 383.008 242.71299999999997H900.512C929.016 242.71299999999997 952.1289999999999 219.59899999999993 952.1289999999999 191.09399999999994C952.129 162.59000000000003 929.016 139.48199999999997 900.512 139.48199999999997z M212.607 809.588C212.607 764.2719999999999 175.861 727.525 130.54399999999998 727.525C85.25199999999998 727.525 48.50699999999998 764.271 48.50699999999998 809.588C48.50699999999998 854.901 85.25199999999998 891.625 130.54399999999998 891.625C175.861 891.625 212.607 854.9010000000001 212.607 809.588z M212.607 500.341C212.607 455.02599999999995 175.861 418.304 130.54399999999998 418.304C85.25199999999998 418.304 48.50699999999998 455.02599999999995 48.50699999999998 500.341C48.50699999999998 545.657 85.25199999999998 582.379 130.54399999999998 582.379C175.861 582.379 212.607 545.6569999999999 212.607 500.341z M212.607 191.09400000000005C212.607 145.77800000000002 175.861 109.053 130.54399999999998 109.053C85.25199999999998 109.053 48.50699999999998 145.77800000000002 48.50699999999998 191.09399999999994C48.50699999999998 236.41099999999994 85.25199999999998 273.13199999999995 130.54399999999998 273.13199999999995C175.861 273.13199999999995 212.607 236.41099999999994 212.607 191.09400000000005z" />
    <glyph glyph-name="minimize"
      unicode="&#xE04B;"
      horiz-adv-x="1000.637" d=" M0.319 583.672H1000.319V417.006H0.31899999999996z" />
    <glyph glyph-name="modify"
      unicode="&#xE04C;"
      horiz-adv-x="1000.637" d=" M763.328 209.856L726.37 363.40200000000004C721.251 384.84800000000007 689.265 402.21500000000003 654.905 402.21500000000003H153.901C119.54000000000002 402.21500000000003 87.555 384.84800000000007 82.43400000000001 363.40200000000004L45.479 209.856C40.357 188.44600000000003 67.964 171.04399999999998 107.148 171.04399999999998H701.623C740.768 171.04399999999998 768.45 188.44600000000003 763.328 209.856zM694.312 223.437C690.0070000000001 217.79600000000005 675.6850000000001 211.712 654.72 211.712H154.049C133.122 211.712 118.83500000000001 217.79599999999994 114.42000000000002 223.437C113.08500000000002 225.29100000000005 113.27100000000002 226.18100000000004 113.45700000000002 226.813L145.73800000000003 354.79200000000003C147.96400000000003 363.73300000000006 168.26100000000002 376.687 194.86600000000004 376.687H613.865C640.508 376.687 660.843 363.73400000000004 663.068 354.79200000000003L695.35 226.813C695.499 226.18100000000004 695.723 225.28999999999996 694.312 223.437z M763.328 170.52599999999995C759.396 153.7879999999999 734.682 141.43499999999995 701.622 141.43499999999995H107.147C74.12100000000001 141.43499999999995 49.410000000000004 153.82799999999997 45.47800000000001 170.52599999999995V128.4459999999999C40.35600000000001 107.00099999999986 67.96300000000001 89.63299999999992 107.147 89.63299999999992H701.6220000000001C740.768 89.63299999999992 768.45 107.00099999999998 763.3280000000001 128.4459999999999V170.52599999999995z M934.981 895.499C900.657 929.212 868.077 897.597 868.077 897.597L844.924 872.735L844.924 872.735V872.717L750.75 771.268C742.104 762.1030000000001 736.353 756.093 736.353 756.093S736.428 755.9069999999999 736.428 755.759C736.428 755.759 627.299 634.718 628.115 633.9590000000001C618.1320000000001 641.8430000000001 597.17 625.015 597.17 625.015S525.516 555.46 524.7769999999999 551.918C512.1229999999999 531.75 515.685 514.606 515.685 514.606L469.52599999999995 465.663C428.412 421.284 401.69599999999997 357.836 389.59799999999996 324.69899999999996L373.234 307.519C368.522 302.54600000000005 368.522 294.67999999999995 373.013 290.006C377.614 285.32899999999995 385.108 285.552 389.712 290.44999999999993L406.185 307.59299999999996C491.531 329.524 531.27 380.506 531.27 380.506C531.084 380.543 531.01 380.543 530.973 380.615C533.5319999999999 383.36300000000006 669.304 530.096 809.268 678.2049999999999C809.49 678.1669999999999 809.751 678.2049999999999 810.009 678.149C810.009 678.595 815.947 685.0699999999999 824.891 694.755C892.5709999999999 766.461 942.774 819.8589999999999 942.959 820.822C975.87 858.949 934.981 895.499 934.981 895.499z" />
    <glyph glyph-name="move-top"
      unicode="&#xE04D;"
      horiz-adv-x="1000.637" d=" M500.243 826.73L114.473 440.871L362.562 441.01300000000003L363.264 0.35600000000010823L637.7280000000001 0.00100000000009004V441.03200000000004L886.1650000000001 440.8710000000001L500.243 826.73L500.243 826.73zM114.473 999.996H886.164V901.151H114.473V999.996z" />
    <glyph glyph-name="new"
      unicode="&#xE04E;"
      horiz-adv-x="1000.637" d=" M600.127 434.28200000000004H531.9409999999999V502.47C531.9409999999999 521.348 516.6909999999999 536.5640000000001 497.8449999999999 536.5640000000001C478.9679999999999 536.5640000000001 463.7519999999999 521.3130000000001 463.7519999999999 502.47V434.28200000000004H395.5629999999999C376.7499999999999 434.28200000000004 361.4689999999999 418.96400000000006 361.4689999999999 400.187C361.4689999999999 381.40999999999997 376.7499999999999 366.09299999999996 395.5629999999999 366.09299999999996H463.75099999999986V297.96899999999994C463.75099999999986 279.126 478.96699999999987 263.80899999999997 497.84499999999986 263.80899999999997C516.6909999999998 263.80899999999997 531.9399999999998 279.125 531.9399999999998 297.96899999999994V366.09299999999996H600.1279999999998C618.9409999999998 366.09299999999996 634.2219999999999 381.409 634.2209999999998 400.187C634.222 419.03099999999995 618.94 434.28200000000004 600.127 434.28200000000004z M934.559 663.6600000000001V686.27H65.925V663.6600000000001C48.760999999999996 660.259 35.907 645.135 35.907 627.216L58.59 150.32899999999995C58.59 129.914 62.825 113.20399999999995 83.39 113.20399999999995H917.321C937.811 113.20399999999995 942.046 129.914 942.046 150.32899999999995L964.73 627.2159999999999C964.729 645.2860000000001 951.723 660.259 934.559 663.6600000000001zM497.846 183.76199999999994C378.327 183.76199999999994 281.422 280.6669999999999 281.422 400.188C281.422 519.707 378.327 616.612 497.846 616.612C617.367 616.612 714.2719999999999 519.707 714.2719999999999 400.188C714.271 280.66700000000003 617.367 183.76199999999994 497.846 183.76199999999994z M934.559 776.4739999999999C934.559 795.682 919.059 811.332 899.629 811.332H458.278C444.442 811.7860000000001 433.78000000000003 836.662 433.78000000000003 846.267V850.423C433.78000000000003 870.915 417.14500000000004 887.474 396.73 887.474H161.65C141.159 887.474 124.525 870.915 124.525 850.423L124.60000000000001 846.267C124.60000000000001 836.663 113.78900000000002 811.332 99.875 811.332H100.103C81.201 810.953 65.92599999999999 795.454 65.92599999999999 776.4739999999999V730.351H934.56V776.4739999999999z" />
    <glyph glyph-name="newwindow"
      unicode="&#xE04F;"
      horiz-adv-x="1000.637" d=" M828.014 238.692V665.499C828.014 755.944 754.662 829.3199999999999 664.192 829.3199999999999H237.251C259.81500000000005 892.747 319.82800000000003 938.462 391.06800000000004 938.462H773.4399999999999C863.967 938.462 937.314 865.141 937.314 774.642V392.43100000000004C937.314 321.27 891.544 261.201 828.014 238.692zM773.4399999999999 610.875V228.66100000000006C773.4399999999999 138.19000000000005 700.04 64.8950000000001 609.5669999999999 64.8950000000001H227.195C136.67 64.8950000000001 63.321 138.19000000000005 63.321 228.66100000000006V610.875C63.321 701.3199999999999 136.669 774.6949999999999 227.195 774.6949999999999H609.567C700.04 774.694 773.4399999999999 701.319 773.4399999999999 610.875zM172.57 228.66000000000008C172.57 198.46800000000007 196.975 174.03600000000006 227.195 174.03600000000006H609.567C639.706 174.03600000000006 664.192 198.46800000000007 664.192 228.66000000000008V556.303H172.57V228.66000000000008zM227.195 720.07C197.05499999999998 720.07 172.57 695.5840000000001 172.57 665.445C172.57 635.278 196.975 610.82 227.195 610.82C257.41400000000004 610.82 281.82 635.278 281.82 665.445C281.82000000000005 695.585 257.33500000000004 720.07 227.195 720.07z" />
    <glyph glyph-name="next"
      unicode="&#xE050;"
      horiz-adv-x="1000.637" d=" M62.438 500.341C62.438 441.37800000000004 73.99600000000001 384.159 96.787 330.274C118.795 278.249 150.291 231.52800000000002 190.397 191.41999999999996C230.504 151.312 277.221 119.81599999999992 329.251 97.80999999999995C383.137 75.0139999999999 440.35499999999996 63.456999999999994 499.317 63.456999999999994S615.5 75.01499999999999 669.384 97.80799999999999C721.413 119.81399999999996 768.131 151.30999999999995 808.239 191.418C848.347 231.52499999999998 879.8430000000001 278.244 901.8480000000001 330.27200000000005C924.6400000000001 384.16100000000006 936.1980000000001 441.37800000000004 936.1980000000001 500.33900000000006C936.1980000000001 559.3040000000001 924.6400000000001 616.523 901.8480000000001 670.408C879.8420000000001 722.436 848.3470000000001 769.155 808.238 809.263C768.1300000000001 849.3720000000001 721.412 880.867 669.383 902.873C615.497 925.6659999999999 558.28 937.222 499.318 937.222C440.354 937.222 383.137 925.6659999999999 329.25199999999995 902.875C277.22299999999996 880.869 230.50599999999997 849.374 190.39799999999994 809.265C150.28999999999994 769.1569999999999 118.79399999999994 722.439 96.78799999999994 670.41C73.995 616.524 62.438 559.306 62.438 500.341zM223.908 575.626C223.908 582.605 229.564 588.262 236.54299999999998 588.262H394.49C394.996 588.262 395.492 588.226 395.982 588.1669999999999H499.32800000000003V638.063C499.32800000000003 665.8720000000001 516.116 691.0509999999999 541.8480000000001 701.702C567.5780000000001 712.356 597.1870000000001 706.452 616.9230000000001 686.762L754.5300000000001 549.016C767.9950000000001 535.55 774.7270000000001 517.933 774.7270000000001 500.316C774.7270000000001 482.701 767.9950000000001 465.086 754.6220000000001 451.62L617.016 313.871C597.188 294.226 567.6719999999999 288.32499999999993 541.8489999999999 298.977C516.209 309.63 499.3759999999999 334.716 499.3759999999999 362.61699999999996V412.466H292.826C291.588 412.466 290.35900000000004 412.523 289.13800000000003 412.626H236.54200000000003C229.56300000000002 412.626 223.90700000000004 418.283 223.90700000000004 425.26300000000003V575.626z" />
    <glyph glyph-name="nextstep"
      unicode="&#xE051;"
      horiz-adv-x="1000.637" d=" M305.955 69.42600000000004L237.302 138.039L600.287 500.339L237.302 862.638L305.955 931.252L737.197 500.338z" />
    </font>
</defs>
</svg>
